
<svg xmlns="http://www.w3.org/2000/svg" version="1.1" xmlns:xlink="http://www.w3.org/1999/xlink" preserveAspectRatio="none" x="0px" y="0px" width="225px" height="225px" viewBox="0 0 225 225">
<defs>
<g id="Layer0_0_MEMBER_0_FILL">
<path fill="#000000" stroke="none" d="
M -16.4 49.3
Q -16.6 49.15 -16.75 49.3 -16.85 49.45 -16.65 49.65 -16.2 50.35 -14.7 51.9
L -12.6 54
Q -12.3 54.15 -12.25 54 -12.1 54 -12.25 53.7 -12.8 52.4 -9.9 49.65 -7.9 47.65 -6.5 47.25 -5.95 47 -5.4 47.25 -5.05 47.4 -5.05 47.25 -4.9 47.2 -5.05 46.95
L -9.3 42.55
Q -9.55 42.3 -9.65 42.45 -9.8 42.55 -9.65 42.9 -9.4 43.45 -9.65 44 -10.1 45.25 -12.25 47.25 -14.1 48.9 -15.3 49.3 -16.1 49.55 -16.4 49.3
M -27.2 34.55
L -27.1 34.9
Q -25.85 37.05 -25.65 37.35 -24.6 38.95 -24.05 39.5 -23.7 39.95 -23.7 39.3 -23.85 39 -23.6 38.6 -23.35 38.25 -22.5 37.8 -21.05 37.25 -19 36.8
L -16.85 36.45
Q -16.25 36.45 -16.5 36.8 -16.75 37.2 -18.2 39.15
L -19.9 41.55
Q -20.85 42.65 -21.9 42.1 -22.35 41.85 -22.15 42.3
L -18.9 46.95
Q -18.8 47.1 -18.65 47.05 -18.6 47.05 -18.65 46.7 -18.8 46.2 -17.75 43.55
L -13.5 35.45
Q -13.25 35 -13.8 35 -15.15 35 -19.9 35.25 -25.6 35.5 -26.85 34.55 -27.1 34.45 -27.2 34.55
M -8.4 -88.5
Q -8.2 -89.5 -9.2 -90.45 -9.9 -91.15 -10.45 -91.2 -10.55 -91.4 -10.65 -91.2 -10.85 -91.1 -10.65 -91 -10.4 -90.4 -11.1 -89.65 -11.45 -89.05 -13.05 -88.3 -14.25 -87.45 -14.7 -87.4 -14.95 -87.2 -15.05 -87.4
L -14.95 -87.6
Q -14 -89.25 -13.8 -90.2 -13.35 -91.45 -14.5 -92.45 -15.4 -93.35 -16.85 -93.15 -18 -93 -18.75 -92.25 -19.4 -91.6 -21.35 -88.85
L -23.6 -85.7
Q -23.85 -85.35 -23.7 -85.35 -23.6 -85.1 -23.25 -85.35 -22.25 -85.8 -18.65 -83.35 -15.75 -81.1 -15.75 -79.5 -15.8 -79.3 -15.75 -79.3 -15.6 -79.15 -15.5 -79.3
L -12.15 -83.8
Q -12 -84 -12.15 -84.15 -12.35 -84.15 -12.6 -84 -12.9 -83.75 -13.8 -84.15
L -15.95 -85.35
Q -16.05 -85.45 -15.95 -85.6
L -15.85 -85.7 -14.5 -85.7
Q -13.45 -85.7 -12.15 -85.8 -10.3 -86.2 -9.75 -86.5 -8.85 -87 -8.4 -88.5
M -19.1 -90.1
Q -17.65 -90.6 -16.4 -89.65 -15.5 -88.8 -15.5 -88.05 -15.5 -87.8 -15.85 -87.15 -16.1 -86.6 -16.65 -86.05 -16.85 -85.8 -17.1 -86.05
L -20.1 -88.3
Q -20.45 -88.35 -20.25 -88.75 -19.6 -89.95 -19.1 -90.1
M -5.4 -106.95
Q -5.5 -106.95 -5.5 -106.65 -5.5 -105.25 -6.3 -104.6 -6.65 -104.2 -7.5 -103.95 -8.55 -103.5 -9.2 -102.8 -10.75 -101.4 -10.9 -99.1 -11.1 -96.65 -9.45 -94.8 -7.45 -92.8 -5.4 -92.8 -3.1 -92.65 -0.65 -94.95 1.1 -96.85 1.1 -98.75 1.1 -100.35 -0.1 -101.7 -1.05 -102.65 -2.45 -102.6 -3.6 -102.45 -4.35 -101.7 -5.1 -100.95 -5.15 -100.1 -5.15 -99.1 -4.6 -98.55 -3.75 -97.65 -3 -97.65 -2.35 -97.65 -2.8 -97.95 -3.05 -98.2 -2.9 -98.65 -2.85 -99.05 -2.45 -99.45 -2.15 -99.75 -1.8 -99.75 -1.35 -99.9 -0.9 -99.45 -0.2 -98.75 -0.45 -97.65 -0.7 -96.7 -1.55 -95.85 -2.4 -95.15 -3.7 -95.5 -4.95 -95.8 -6.6 -97.5 -8 -98.9 -8.3 -100.35 -8.55 -101.55 -7.85 -102.25 -6.5 -103.6 -4.25 -104.05
L -3.9 -104.15 -5.15 -106.65 -5.4 -106.95
M 72.55 79.1
Q 71.9 79.35 71.55 79.35 70.85 79.35 69.85 78.9
L 69.5 78.75
Q 68.7 78.45 67.7 78.45 66.4 78.45 65.35 78.75 64.6 79.1 63.75 79.65 62.3 80.7 62.3 82.25 62.3 84.95 65.9 85.75 66.55 85.95 68.8 86.1 70.6 86.4 70.6 87.3 70.5 88.5 68.5 88.55 67.25 88.7 65.1 87.9
L 63.2 87.1 63 87.1 62.75 87.2 61.75 90.35
Q 61.65 90.5 61.75 90.6 61.85 90.7 62.1 90.45 62.7 89.85 64.2 89.45 64.65 89.4 66.15 89.6 67.75 89.9 68.5 89.9 70.2 89.9 71.65 89.25 73.45 88.35 73.45 86.75 73.45 85.2 72.3 84.2 70.9 83.05 68.85 83.05 67.6 83.05 66.45 82.6 65.1 82.15 65.1 81.5 65.1 80.9 65.7 80.45 66.4 80 67.7 80 69.75 80 71.75 81.35 73.1 82.4 73.55 83.15 73.8 83.6 74 83.6 74.25 83.5 74 82.95 73.7 82.1 73.55 80.45
L 73.45 78.65
Q 73.45 78.35 73.2 78.35 73 78.35 72.9 78.65
L 72.9 78.8 72.55 79.1
M 20.8 67.3
Q 20.55 67.3 20.7 67.75 20.8 68.2 20.45 69.45 19.95 71.15 19.2 72.95 18.45 74.75 16.75 76.65 15.7 77.8 15.05 78.2 14.7 78.45 14.85 78.55 14.9 78.7 15.3 78.45 17.35 77.75 18.3 78.35
L 21 79.9
Q 23.3 80.9 25.5 80.1 26.85 79.65 27.65 78.75 28.25 78.15 28.65 77.2 29.7 74.75 29 72.7 28.35 70.6 25.85 69.45 24.2 68.7 22.8 68.65 21.95 68.65 21.25 67.65 20.9 67.2 20.8 67.3
M 20.9 73.25
L 20.55 72.25
Q 20.55 71.7 20.8 71.35 21.05 70.8 21.8 70.2 22.7 69.85 23.8 70.2
L 23.85 70.25
Q 25.35 70.75 25.75 72.15 25.95 73.05 25.4 74.85 25.25 75.15 24.95 75.05 21.2 73.65 20.9 73.25
M 18.85 76.75
Q 18.55 75.85 18.85 75.05 19.3 73.95 21.8 74.85 22.95 75.15 24.5 76.05 24.75 76.2 24.6 76.5 24.35 77.2 23.05 78.1 21.7 79 20.55 78.55 19.25 77.95 18.85 76.75
M 143.65 60.45
Q 143.5 60.3 143.3 60.45 141.95 61.1 139.25 57.95 136.45 54.75 137.1 53.45 137.25 53.15 137.1 53 137.05 52.95 136.8 53.15 136.1 53.55 134.3 55.15
L 132.3 57.05
Q 131.9 57.45 132.05 57.5 132.2 57.65 132.5 57.5 133.1 57.3 133.65 57.5 134.85 58.1 136.8 60.2 138.35 62.05 138.7 63.35 138.9 64.15 138.7 64.5 138.55 64.85 138.7 64.85 138.8 64.95 139.05 64.85
L 143.55 60.8
Q 143.75 60.7 143.65 60.45
M 84.25 79.45
Q 84.45 79 84.7 78.8
L 84.9 78.55
Q 85.25 78.35 85.25 78.2
L 84.8 78.1 78.85 78.65 78.6 78.8 78.5 79
Q 78.5 79.1 78.85 79.1 79.35 79.3 79.75 79.9 80.45 81.05 80.65 83.95 80.85 86.3 80.4 87.55 80.2 88.4 79.75 88.45 79.5 88.6 79.5 88.8 79.5 88.9 79.85 88.9
L 82.9 88.7
Q 84.9 88.5 85.8 88.35 86.05 88.2 86.05 88.1 86.05 87.9 85.8 87.9 84.35 87.55 84 83.5 83.7 80.65 84.25 79.45
M 97.3 78.75
L 97.3 78.8
Q 96.9 76.15 97.5 75.65 97.85 75.3 97.75 75.2 97.75 75.05 97.4 75.2
L 91.55 76.75
Q 91.2 76.95 91.2 77.1 91.2 77.25 91.65 77.3 92.1 77.3 92.55 78 92.85 78.3 93 78.8 93.55 79.5 93.9 80.45
L 95.15 84.2
Q 95.3 84.5 95.05 84.65
L 93.1 85.1
Q 92.9 85.15 92.45 85.1
L 91.65 84.5
Q 91.25 84.2 91.3 84.85 91.7 87.35 91.3 89.35 91.25 89.65 91.45 89.6 91.55 89.6 91.65 89.35 92.7 87.55 94.25 86.75
L 101.45 84.75
Q 102.25 84.55 102.9 84.75 103.15 84.85 103.25 84.75 103.4 84.6 103.25 84.4
L 102.55 83.15
Q 102.2 82 102 81.7 101.75 81.15 101.55 81.95 101.3 82.85 98.65 83.6 98.25 83.6 98.2 83.25
L 97.3 78.75
M 103.5 73.6
Q 103.3 73.8 103.35 73.95 103.5 74.05 103.8 73.95 104.2 73.8 105.25 74.15 106.85 74.8 108.4 76.05 109.25 76.75 110.45 78
L 111.35 79.2
Q 111.4 79.55 111.35 79.9
L 110 82.25
Q 109.95 82.4 110.1 82.5 110.25 82.55 110.45 82.35 111.8 81.25 114.05 80.1
L 116.85 78.75
Q 117.75 78.45 119.1 77.75 119.45 77.55 119 77.3 117.6 76.8 117.2 72.6 117 68.95 117.75 67.4 118 66.85 117.4 67.05
L 115.05 68.1
Q 112.95 69 112.35 69.45 112.15 69.5 112.15 69.65 112.25 69.95 112.35 69.75 112.75 69.75 113.25 70.2 113.8 70.85 114.05 72.25 114.15 72.55 113.8 72.7
L 111.25 73.95
Q 110.9 74.05 110.65 73.8 109.9 72.6 109.55 71.8 109.4 71.45 109.55 71.25 109.75 70.65 109.3 70.9 108.3 71.25 106.65 72 103.9 73.25 103.5 73.6
M 114.05 73.8
Q 114.25 73.6 114.4 73.7
L 115.4 76.65
Q 115.4 76.95 115.2 77.1
L 114.15 77.85
Q 113.85 78.1 113.6 77.85
L 111.9 75.3
Q 111.7 74.95 111.9 74.85
L 114.05 73.8
M 149.7 41.1
Q 149.45 40.35 149.5 39.95 149.55 39.75 149.5 39.6 149.4 39.55 149.25 39.75
L 147.8 41.1 145.65 43.8
Q 145.45 44 145.55 44 145.55 44.15 145.9 44 147 43.7 149.7 45.8
L 152.65 48.05
Q 152.9 48.3 152.75 48.4 152.75 48.5 152.4 48.5
L 148.5 47.15
Q 146.3 46.45 144.1 46.05 143.8 46.05 143.4 46.35
L 140.6 49.4
Q 140.4 49.75 140.5 49.75 140.6 49.85 141.05 49.85 141.45 49.85 142.4 50.65 143.4 51.3 144.9 52.65 147.65 55.35 147.35 56.7 147.25 56.95 147.35 57.05 147.5 57.05 147.7 56.85 148.55 56.2 149.5 55.15 151.05 53.5 151.4 53 151.65 52.65 151.4 52.65 151.25 52.6 151.05 52.65 150.05 53.1 147 50.75
L 144.1 48.4
Q 143.9 48.25 143.95 48.05 144.1 48 144.4 48.05
L 145.9 48.3
Q 147.05 48.5 148.45 48.95 149.75 49.5 151.15 49.95
L 153.1 50.55
Q 153.5 50.65 153.75 50.3
L 155.2 48.6
Q 155.9 47.95 156.55 46.95 156.8 46.7 156.7 46.6 156.55 46.45 156.25 46.6 155.65 46.7 154.65 46.05 153.45 45.1 151.85 43.55 150.55 42.3 149.7 41.1
M 165.8 9.25
L 165.7 8.9
Q 165.6 8.9 165.35 9.15
L 163.2 14.2
Q 163.2 14.55 163.35 14.55 163.45 14.65 163.65 14.45 164.55 13.55 168.4 15.2
L 171.55 16.55
Q 171.75 16.7 171.75 16.8 171.75 16.9 171.45 16.9
L 165.6 17.45 165.25 17.7 165.35 18.05 169.05 22.85
Q 169.25 23.1 169.05 23.2
L 168.85 23.2 165.7 21.85
Q 164.2 21.25 162.9 20.4 161.75 19.55 161.75 19.15
L 161.65 18.7
Q 161.5 18.6 161.3 18.95
L 160.2 21.65
Q 159.3 23.7 159.15 24.35 159.1 24.75 159.6 24.45 160 24.1 160.65 24.1 162 24.3 164.45 25.1 167.1 26.15 168.05 26.9 168.55 27.3 168.6 27.7 168.75 28 168.85 27.7 169.2 27.35 169.95 25.25
L 170.85 23.1
Q 171 22.65 170.75 22.4
L 168.15 19.25
Q 167.95 18.95 168.3 18.95
L 172.35 18.7
Q 172.6 18.7 172.8 18.5 172.95 18.35 173.9 16
L 174.8 13.65
Q 174.8 13.1 174.35 13.4 174.05 13.8 172.8 13.55 171.95 13.25 169.4 12.05 166.8 10.85 166.15 10.15 165.8 9.85 165.8 9.25
M 182.9 -29.65
Q 182.9 -29.9 182.55 -30.25 180.8 -31.45 180.55 -32.8
L 180.55 -33.95
Q 180.6 -34.6 180.4 -36.1 180.1 -38.3 178.15 -39.8 176.2 -41.35 173.55 -40.95 169.75 -40.35 168.85 -37.1 168.15 -34.5 169.75 -31.95 170.6 -30.65 170.3 -29.55 170.15 -29.25 170.4 -29.1 170.55 -29 170.95 -29.35 172.1 -29.85 173.8 -30.1 174.45 -30.25 174.45 -30.35 174.45 -30.5 173.8 -30.7 172.8 -31 171.85 -31.7 170.9 -32.65 170.65 -33.75 170.4 -34.85 171.4 -35.75 172.45 -36.8 174.25 -37.1 176.05 -37.45 177.6 -36.9 179 -36.3 179.2 -35.1
L 179.2 -35.05
Q 179.4 -34.1 178.95 -32.7 178.65 -31.85 178.15 -31.25 177.85 -30.7 178.4 -30.7
L 182.45 -29.8
Q 182.9 -29.55 182.9 -29.65
M 26.3 -125.55
L 25.95 -125.55 23.7 -124.65
Q 21.6 -123.6 21 -123.15 20.55 -122.85 21.35 -122.85 22.45 -122.85 24.4 -119.55
L 26.3 -116.3
Q 26.35 -116.1 26.3 -115.95 26.1 -115.95 25.85 -116.1 23.75 -117.3 22.35 -118.45
L 18.65 -121.6
Q 18.3 -121.8 17.85 -121.6
L 14.15 -119.45
Q 13.8 -119.4 13.8 -119.1
L 14.25 -119
Q 14.8 -118.95 15.5 -118
L 17.3 -114.5
Q 18.9 -111.5 18.2 -110.45 18 -110.2 18.1 -110.1 18.1 -110.05 18.3 -110.1 19.6 -110.55 20.55 -111.15 22.15 -111.85 23.15 -112.6 23.55 -112.8 23.05 -112.95 22.5 -112.95 21.9 -113.4 21.1 -114.1 20 -115.95
L 18.2 -119.1
Q 18 -119.45 18.1 -119.45 18.2 -119.6 18.55 -119.45
L 21.7 -116.75
Q 23.7 -115.2 25.4 -114.15 25.75 -113.95 26.2 -114.15 26.25 -114.25 28.35 -115.2 29.65 -115.85 29.9 -116.1 30.35 -116.4 29.7 -116.55 29.35 -116.6 28.65 -117.75 27.65 -119.5 27.1 -120.7 26.1 -122.65 25.95 -124.2 25.95 -124.95 26.3 -125.2 26.45 -125.4 26.3 -125.55
M 149.15 -99.65
L 149.15 -99.3
Q 149.25 -98.8 148.6 -97.95
L 145.9 -95.15
Q 143 -92.45 142.15 -92.7 141.85 -92.75 141.85 -92.7 141.75 -92.6 142.05 -92.35 142.4 -92.15 143.4 -90.75
L 147 -86.7
Q 148.1 -85.4 149.35 -85.15 150.55 -85 151.75 -85.95 152.65 -86.7 152.4 -87.85 152.35 -88.65 151.75 -89.4 151.25 -89.9 150.25 -90.1 150.15 -90.2 150.05 -90.1
L 150.15 -89.85
Q 150.3 -89.65 150.15 -89.3 149.95 -88.85 149.35 -88.5 148.85 -88.05 148.15 -88.2 147.5 -88.25 147 -88.75
L 145.55 -90.3
Q 145.35 -90.5 145.65 -90.75
L 148 -92.9
Q 149.35 -94.05 150.85 -94.8 152.05 -95.5 152.75 -95.4 153.25 -95.25 152.85 -95.7
L 149.5 -99.55
Q 149.25 -99.8 149.15 -99.65
M 130.7 -102.35
Q 130.7 -102.2 131.05 -102
L 136.65 -97.2
Q 138.05 -96 139.25 -95.95 140.5 -95.95 141.4 -97.05 142.15 -97.95 141.85 -99.1 141.65 -99.85 140.95 -100.45 140.3 -100.95 139.45 -101 139 -101.15 139.35 -100.8 139.5 -100.55 139.35 -100.2 139.3 -99.7 138.8 -99.3 138.4 -98.9 137.55 -98.75 136.9 -98.75 136.3 -99.2
L 134.75 -100.55
Q 134.55 -100.75 134.75 -101
L 136.75 -103.5
Q 138.1 -105.05 139.35 -105.85 140.55 -106.65 141.15 -106.65
L 141.4 -106.65 141.25 -106.95 137.35 -110.25 137 -110.35 137 -110
Q 137.25 -109.55 136.65 -108.65 136.35 -108.1 134.3 -105.4 132.8 -103.5 131.95 -102.8 131.4 -102.45 131.05 -102.45 130.7 -102.6 130.7 -102.35
M 121.05 -109.55
Q 120.85 -109.45 121.15 -109.35
L 123.75 -107.4
Q 125.85 -106 126.2 -105.85 126.6 -105.7 126.65 -105.85
L 126.55 -106.3
Q 126.15 -106.7 126.2 -107.4 126.4 -108.65 128.1 -111 130.35 -114.3 131.85 -114.05 132.05 -114 132.05 -114.05 132.2 -114.15 131.95 -114.4
L 127 -117.75
Q 126.8 -117.9 126.65 -117.75 126.55 -117.65 126.75 -117.45 127.7 -116.3 125.3 -112.95 122.85 -109.35 121.5 -109.65 121.1 -109.65 121.05 -109.55
M 109.65 -107.55
L 103.25 -110.25
Q 86.8 -116.75 68.7 -116.75 50.65 -116.75 34.05 -110.25
L 32.05 -109.45 31.95 -109.35
Q 17.1 -103 5.15 -92.25
L 1.9 -89.1
Q -0.9 -86.2 -2.8 -84 -12.4 -72.85 -18.3 -59.05 -25.75 -41.45 -25.75 -22.25 -25.75 -16.9 -24.95 -10.35 -23.6 0.95 -19.55 11.5 -15.5 21.85 -9.3 30.95
L -7.85 33
Q -5.65 36.1 -3.35 38.85
L 0.65 43.35
Q 10.75 53.85 23.85 60.9 44.8 72.25 68.7 72.25 92.55 72.25 113.5 60.9 126.65 53.8 136.8 43.35
L 138.8 41.1 138.9 40.95
Q 143.1 36.35 146.8 30.95 149.15 27.45 150.95 24.2 160.15 8.15 162.45 -10.35 163.2 -16.5 163.2 -22.25 163.2 -41.55 155.8 -59.05 149.6 -73.55 138.9 -85.5
L 132.15 -92.25
Q 122.1 -101.45 109.65 -107.55
M 81.3 -100.2
Q 81.55 -99.95 81.55 -99.55
L 81.9 -92.25
Q 81.9 -91.45 81.3 -91.45
L 72.65 -91.1
Q 72.35 -91.15 72.2 -91.65
L 72.1 -92.25
Q 72.1 -92.8 72.3 -95.7 72.55 -98.85 72.45 -99.55 72.3 -99.85 72.45 -100 72.6 -100.15 73.2 -100.2
L 81.3 -100.2
M 96.5 -100.9
Q 96.85 -100.7 96.85 -100
L 96.7 -96.15
Q 96.7 -93.05 96.6 -92.9
L 96.6 -92.35 96.5 -92.25
Q 96.4 -92 95.95 -92
L 89.05 -91.65
Q 88.4 -91.65 88.15 -92.25
L 88.05 -92.8 88.3 -100.8 95.5 -100.9
Q 96.25 -101 96.5 -100.9
M 46.65 -100.1
Q 47.6 -100.2 47.8 -100 48.2 -99.85 48 -99.2 47.9 -98 47.9 -92.45
L 47.9 -92.2 47.8 -91.65
Q 47.55 -91.35 47 -91.2 46.55 -91.1 43.95 -91.2
L 41.05 -91.3
Q 39.85 -91.1 39.9 -91.75 40 -91.95 39.9 -92.2 40.1 -92.95 40.15 -93.7
L 40.15 -95.8
Q 40.05 -96.4 40.05 -99.2 40.05 -99.95 40.8 -100.1 41.25 -100.15 46.65 -100.1
M 25.5 -83.35
Q 25.3 -84.65 26.4 -84.9 28.35 -85.05 30.9 -85.05 31.7 -85.05 32.05 -84.9 32.6 -84.65 32.6 -84
L 32.5 -79.05
Q 32.5 -78.65 32.25 -78.3 32.25 -78.2 32.05 -78.05 31.7 -77.7 31.25 -77.85
L 26.05 -77.95
Q 25.4 -77.95 25.4 -78.6 25.65 -82.75 25.5 -83.35
M 20.9 -83.55
Q 20.9 -82.3 20.55 -78.95
L 20.55 -78.25
Q 20.55 -77.95 20.1 -77.95
L 13.8 -77.95
Q 13.05 -77.95 12.9 -78.05 12.7 -78.25 12.7 -78.7
L 12.8 -83.65
Q 12.65 -84.1 12.9 -84.25
L 13.6 -84.45 19.9 -84.45
Q 21 -84.45 20.9 -83.55
M 6.15 -84.8
Q 7.35 -84.85 7.15 -83.8
L 7.15 -79.05
Q 7.15 -78.55 6.95 -78.5 6.7 -78.25 6.05 -78.4 5.15 -78.5 3 -78.5 2.5 -78.5 2.2 -78.6 1.9 -78.8 1.9 -79.3 1.75 -79.6 1.9 -81.55
L 2 -83.9
Q 1.85 -84.3 2.1 -84.55 2.3 -84.9 2.65 -84.9
L 6.15 -84.8
M 8.4 -51.95
L 8.5 -49.7
Q 8.5 -47.8 8.4 -47.45
L 8.5 -45.4
Q 8.75 -43.95 8.65 -43.6 8.4 -42.35 8.4 -41.8 8.45 -41.75 8.65 -41.15 8.65 -40.8 7.95 -40.8
L 4 -41.05
Q 1 -41.1 0.2 -41.25 -0.3 -41.45 -0.55 -41.8
L -0.75 -42.5 -0.9 -45.3
Q -0.9 -47.9 -0.75 -48.35
L -0.65 -53.3 7.4 -52.75 8.05 -52.6
Q 8.4 -52.4 8.4 -51.95
M 23.95 -52.3
Q 23.8 -52.6 24.05 -52.85
L 24.5 -52.95 26.5 -52.95
Q 28.6 -52.95 29.2 -52.85 29.9 -52.75 32.05 -52.75 33.85 -52.6 34.3 -52.75 35.25 -52.8 35.2 -51.95
L 35.2 -41.15
Q 35.2 -40.55 35.05 -40.5 35 -40.15 34.3 -40.15
L 30.45 -40.15
Q 27.5 -40.15 26.3 -40.25
L 23.7 -40.5 23.95 -52.3
M 21.55 -46.2
Q 21.9 -45.75 21.1 -45.1 21.05 -44.85 19.9 -44.95
L 18.3 -45.1
Q 16.95 -45.1 15.6 -45.2 13.45 -45.2 13.15 -45.3 12.9 -45.3 12.8 -45.55
L 12.8 -46.65
Q 20.4 -46.35 20.8 -46.45 21.35 -46.55 21.55 -46.2
M 12.7 -43.5
L 14.25 -43.5
Q 15.75 -43.45 17.5 -43.15 19.65 -42.85 21.7 -43.05 21.05 -42.5 18.65 -42.5
L 12.7 -42.95 12.7 -43.5
M 11.8 -8.4
Q 11.8 -8.65 12.1 -8.65 12.8 -8.7 20.65 -8.65
L 20.7 -8.65
Q 21.35 -8.65 21.25 -8.1
L 21.35 -5.5
Q 21.45 -2.9 21.35 -2.55
L 21.25 -0.45 16.3 -0.1
Q 15.7 0.05 14.05 -0.1
L 12 -0.2
Q 11.55 -0.2 11.55 -0.65
L 11.65 -7.85
Q 11.65 -8.3 11.8 -8.4
M 75.45 -46.9
Q 73.35 -46.4 71.85 -46.2 70.85 -46 66.1 -46 65 -46 63.3 -46.35
L 61.75 -46.55 63.85 -47
Q 66.35 -47.45 67.7 -47.45 69.7 -47.45 75.45 -46.9
M 44.65 -4.45
L 44.65 -4.5
Q 45.5 -4.95 46.1 -4.8 47.55 -4.75 48.45 -3.45 48.8 -3.05 48.8 -2.25
L 48.8 -1.9
Q 48.75 -0.6 47.9 -0.4 47.1 -0.2 46.1 -0.3 45.05 -0.45 44.5 -1
L 43.75 -1.75 43.65 -2.2
Q 43.6 -2.55 43.65 -3.1 43.75 -4 44.65 -4.45
M 122.15 -85.95
Q 122.85 -86.05 123.15 -85.95 123.7 -85.75 123.85 -84.8
L 124.2 -79.85
Q 124.2 -79.5 123.6 -79.3 123.1 -79.05 122.6 -79.05
L 114.85 -78.95
Q 114.85 -82.9 114.75 -83.7 114.55 -85.75 115.75 -85.95 116 -86 118.9 -85.95 121.7 -85.8 122.15 -85.95
M 129.25 -79.95
Q 129 -80.1 129 -80.4
L 129.15 -86.05 134.3 -86.25
Q 134.55 -81.1 134.4 -80.65 134.3 -79.95 133.5 -79.95 130.5 -79.75 129.7 -79.85 129.25 -79.85 129.25 -79.95
M 128.1 -78.15
Q 129.35 -78.15 131.6 -78.3 133.8 -78.3 134.1 -78.4 134.65 -78.45 135 -78.4 135.3 -78.25 135 -77.95
L 133.75 -76.6
Q 130.9 -76.25 129.7 -76.25 122 -75.95 120 -76.05
L 114.95 -76.05
Q 111.65 -76.05 110.9 -75.9
L 109.3 -75.9
Q 108.55 -75.9 108.3 -76.15 108 -76.25 107.2 -76.25
L 105.95 -76.15
Q 105.55 -76.15 105.15 -76.5
L 104.6 -77.05
Q 104.15 -77.5 105.05 -77.6 105.25 -77.7 107.85 -77.85
L 111 -77.85
Q 112.25 -77.85 114.5 -77.7
L 117.75 -77.6
Q 120.05 -77.6 121.8 -77.85
L 128.1 -78.15
M 113.95 -49.6
L 116.2 -49.95
Q 118.25 -50.15 119.35 -50.15
L 124.4 -50.15 124.4 -48.7
Q 120.85 -48.35 119 -48.35
L 113.95 -48.25 113.95 -49.6
M 113.5 -43.5
L 115.15 -43.95
Q 117.2 -44.4 119.1 -44.4 121.5 -44.4 122.05 -44.3 122.9 -44.25 124.4 -43.85 123.55 -43.45 121.7 -43.2
L 119.1 -43.2
Q 116.65 -43.2 115.3 -43.3
L 113.5 -43.5
M 114.5 -45.75
Q 113.85 -45.75 113.85 -46.2 113.7 -46.55 114.4 -46.65 114.8 -46.75 119.1 -46.9
L 123.6 -47.1
Q 124.4 -47 124.5 -46.45 124.5 -45.75 123.5 -45.75
L 114.5 -45.75
M 88.4 -4.25
Q 88.8 -5.45 89.2 -5.7 89.55 -5.9 90.65 -6.05 91.55 -6.1 92.1 -6.05 92.85 -5.8 93.25 -5.25 93.8 -4.55 93.6 -3.7 93.4 -2.75 92.8 -2.25 92.2 -1.65 91.1 -1.65 89.45 -1.55 88.75 -2.25
L 88.65 -2.45
Q 88.2 -3.15 88.4 -4.25
M 106.3 -0.45
Q 106 -0.65 105.6 -0.55 105.15 -0.4 104.4 -0.55
L 103.7 -0.65 104.7 -1.2
Q 105.85 -1.8 106.3 -2.25 107.2 -3 109 -3.45 109.3 -3.5 109.65 -3.8
L 109.9 -3.9
Q 110.8 -4.5 111.25 -4.7 112.5 -5.45 115.2 -6.85
L 115.3 -6.75 115.4 -6.15 115.05 -4.35
Q 115 -4.05 115.05 -3.6
L 115.2 -2.7
Q 115.05 -2 115.2 -0.55
L 110.1 -0.2
Q 107.6 -0.1 106.85 -0.3
L 106.3 -0.45
M 116.85 -7.85
L 118.1 -8.55
Q 118.95 -8.9 119.8 -8.75 121.15 -8.5 125.55 -8.75 126.3 -8.65 126.3 -7.95
L 126.45 -0.9
Q 126.45 -0.1 125.85 -0.2 121.3 -0.05 120.45 -0.2 119.85 -0.3 118.35 -0.3
L 116.75 -0.45
Q 116.75 -3.15 116.55 -4.15
L 116.75 -5.6
Q 116.9 -6.7 116.75 -6.95 116.45 -7.35 116.55 -7.5 116.55 -7.6 116.85 -7.85
M 108.75 1.25
L 109.35 1.25 109.45 9.8 105.3 9.95
Q 104.95 9.95 103.8 9.7
L 102.45 9.6 100.65 9.7 100.35 9.8
Q 99.9 9.8 99.9 9.5
L 100.2 2.15 100.35 1.6 100.65 1.5 103.6 1.25 107.2 1.5
Q 107.65 1.6 108.1 1.5
L 108.75 1.25
M 98.4 2.5
L 98.4 5.1
Q 98.35 5.55 98.4 7.35
L 98.55 9.25
Q 98.65 9.8 98.2 9.8
L 95.25 9.95
Q 94.85 9.95 94.7 9.7 94.6 9.45 94.7 9.15 94.85 8.8 94.7 7.8
L 94.7 5.2
Q 94.65 4.5 95.05 4.3
L 98.4 2.5
M 42.95 13.65
Q 43.05 15.7 42.95 16.2
L 42.85 19.05
Q 42.85 19.6 42.25 19.6 41.35 19.85 38.65 20.15 36.05 20.3 35.75 20.4 35.4 20.45 34.75 20.4
L 34.15 20.4 34.15 16.45
Q 34.1 13.25 34.3 12.4 34.35 12 34.5 11.85 34.65 11.6 34.95 11.6 36.3 11.55 37.45 11.6 38.15 11.75 40.25 11.75
L 42.85 11.85 42.95 13.65
M 37.45 1.25
Q 37.8 1.25 37.8 1.7
L 38 9.5 37.9 9.7 37.65 9.8
Q 33.4 9.6 31.95 9.8
L 28.55 9.8 28.55 1.25 37.45 1.25
M 32.4 11.75
L 32.7 12.05
Q 32.95 12.3 32.95 12.65
L 32.85 14.55
Q 32.85 16.35 32.7 16.7 32.5 17.35 32.4 20.25 30.45 20.6 29.1 20.6 27.9 20.4 27 20.4 24.65 20.4 24.05 20.5 22.9 20.65 23.15 19.95
L 23.15 15.35
Q 23 13.35 23.25 12.85
L 23.25 11.6
Q 23.15 11.5 23.25 11.4
L 23.6 11.4
Q 23.95 11.25 25.05 11.4 26.25 11.4 26.3 11.5 26.55 11.6 27 11.4 27.15 11.25 28.3 11.4 29.65 11.4 30 11.5
L 31 11.5
Q 31.5 11.5 31.7 11.6 31.7 11.75 32.05 11.75 32.25 11.6 32.4 11.75
M 37.9 51.1
Q 35.5 51.85 31.6 54.8 28.7 56.95 27.85 57.85 27.6 58.2 27.4 58.2 27.2 58.25 27.4 57.85 28.25 56 28.65 55.6 30.25 53.35 33.4 51.45 30.75 52.2 23.25 56.95 23.9 55.35 25.15 54 25.9 53.2 27.85 51.55 26.35 51.85 23.8 53.25
L 20.8 54.9
Q 20 55.3 20.1 55.15
L 20.55 54.7
Q 23.05 52.35 24.6 51.3 23.55 51.5 20.45 52.45 17.9 53.35 17.2 53.25 18.8 52.2 21.25 51.1 24 49.9 26.2 49.5 35.6 47.75 40.8 48.5 43.9 48.95 47.1 49.85 50.5 50.8 51.95 51.45 53.3 51.95 56.55 53.7 58.15 54.6 60.3 55.95 61.45 56.65 63.9 58.95 66.55 61.55 67.5 62.9 68.8 65 69.75 66.85
L 66.7 68.85 66.9 67.2 67.7 65.4
Q 66.9 65.65 65.45 66.95 65.2 67.35 63.75 68.85 63.75 67.5 64.45 65.4 65.15 63.6 65.55 63 64.45 63.7 62.4 65.85 60.45 67.8 60.05 68.4 60.3 66.6 61.3 64.15 62.2 62.25 63.3 61 63.65 60.65 63.55 60.55 63.4 60.4 63.1 60.65 61.3 61.75 59.05 64.5 57.05 66.75 56.65 67.5 56.4 67.95 56.35 67.75 56.2 67.6 56.2 67.2 56.35 65.15 57.7 62.45 58.8 60.05 60.25 58.2 59 58.7 55.65 62.35 53 65.2 52.3 66.4 52.05 64.4 53.85 61 55.35 57.95 56.7 56.5 55.3 56.75 51.95 60.45 48.9 63.65 48.25 64.8 48.25 62.8 49.6 60.1 51.2 56.7 53.75 54.8 52.15 55.2 48.7 58.4 45.35 61.55 43.75 64.25 44.25 60.75 47 56.85 48.8 54.25 49.7 53.7 49.9 53.55 49.8 53.45 49.7 53.35 49.45 53.45 47 54.75 43.95 57.75 41.1 60.5 40.25 62.1 40.75 58.5 43.15 55.25
L 46.3 52
Q 44.55 52.45 40.7 55.6 36.8 58.7 35.5 60.75 36.1 58.15 38.1 55.35 39.8 53.15 41.95 51.65 39 52.5 35.05 55.7 32.3 58 31.6 59.2
L 31.15 59.65
Q 31.05 59.65 31.35 58.95 32.35 57 33.4 55.6 35.5 52.75 37.9 51.1
M 55.3 -100.3
Q 55.6 -100.45 56.1 -100.45
L 62.85 -100.55
Q 63.4 -100.55 63.75 -100.3
L 63.75 -100.35
Q 64.1 -100.05 64.1 -99.3
L 64.3 -90.85
Q 61.1 -90.75 60.05 -90.85
L 55.3 -90.85 55.3 -94.15
Q 55.2 -99.15 55.1 -99.75 55.1 -100.2 55.3 -100.3
M 68.6 -81.1
Q 69.9 -81.2 70.5 -80.85 71.05 -80.55 71.75 -79.65 72.4 -78.85 72.55 -77.95
L 73.2 -74.25
Q 73.55 -75.6 73.55 -76.25 73.55 -78.9 73.45 -79.5 73.3 -79.85 73.55 -79.95 73.8 -80.1 74.1 -80.1
L 75.9 -80.2
Q 76.9 -80.2 76.9 -79.2
L 76.9 -77.25
Q 77.05 -75.9 76.9 -75.6 76.65 -75.1 75.25 -74.45
L 78.05 -73.9
Q 78.25 -73.8 79.5 -73.55 80.5 -73.1 80.5 -72
L 80.5 -69.85
Q 80.5 -69.05 80.65 -68.85 80.85 -68.45 80.75 -67.95 80.6 -67.2 79.85 -67.15
L 74 -66.8 75.25 -66.45
Q 76.45 -66.2 76.6 -65.9 76.8 -65.55 76.7 -62.75
L 76.6 -60.25
Q 76.4 -59.75 75.55 -59.6
L 72.85 -58.95 74.65 -58.7 79.4 -58.5
Q 79.7 -58.5 80.05 -58.15 80.4 -57.95 80.5 -57.45 80.65 -56.1 80.65 -54.45 80.65 -53.6 79.75 -53.4
L 70.75 -52.5 76 -51.6 76 -51.15 71.75 -50.6
Q 71.15 -50.6 70.3 -50.25
L 69.5 -50.15 70.85 -49.95
Q 72.6 -49.7 73 -49.7
L 75.7 -49.6 75.55 -48.45
Q 70.9 -47.8 68.8 -47.9
L 61.6 -48.25 61.4 -49.25 63.85 -49.6
Q 64.65 -49.65 66.8 -50.15 62.95 -50.7 61.5 -50.7 60.8 -50.7 60.6 -51.05 60.6 -51.4 61.15 -51.5
L 66.1 -52.4
Q 62.9 -52.85 61.5 -52.85
L 57.35 -53.2
Q 56.05 -53.4 56.1 -54.45
L 56.35 -55.55 56.35 -56.8
Q 56.2 -57.3 56.55 -57.8 56.9 -58.35 57.35 -58.5 58.45 -58.9 61.4 -59.15 62.2 -59.15 62.95 -59.4
L 60.15 -60.15
Q 59.65 -60.45 59.5 -60.75 59.35 -61.05 59.35 -61.5
L 59.25 -63.65
Q 59.25 -65.4 59.5 -65.8 59.75 -66.05 60.4 -66.35 61.15 -66.7 62.05 -66.8 60.85 -67.5 57.8 -67.25 56.95 -67.25 56.45 -67.5 56 -67.6 55.9 -68.05 55.75 -68.5 55.75 -70.3 55.75 -72.2 55.9 -72.65 56.15 -73.15 56.65 -73.35
L 58.35 -73.55
Q 59.55 -73.75 61.05 -74.25
L 59.6 -74.8
Q 59.05 -75.05 59.05 -76.8
L 59.05 -78.95
Q 59.05 -79.55 59.5 -79.85 59.8 -80.2 60.25 -80.3 61.85 -80.55 62.4 -80.3 63.4 -80.1 62.95 -79.3 62.8 -78.9 62.75 -76.95
L 62.75 -74.9
Q 63 -76.3 63.4 -77.5 64.3 -80.05 65.65 -80.65 67.15 -81.1 68.6 -81.1
M 78.95 -74.9
Q 78.15 -74.9 77.95 -75.1 77.7 -75.35 77.7 -76.25
L 77.95 -80.5 87.6 -80.85
Q 88.45 -80.85 88.65 -80.65
L 88.75 -79.65
Q 88.65 -79.1 88.65 -71.1
L 88.5 -54.55
Q 88.5 -53.4 87.6 -53.5 87.15 -53.65 85.6 -53.65
L 83.55 -53.5
Q 82.55 -53.5 82.45 -54.65 82.3 -55.45 82.55 -57.7 82.55 -58.55 83.9 -58.7
L 85.45 -59.05 86.8 -59.15 86.8 -59.95 78.25 -60.15 78.15 -65.65
Q 78.15 -66.1 78.95 -66.25
L 80.05 -66.45 87.15 -66.7 87.05 -67.35
Q 84.3 -67.35 83.2 -67.45 82.7 -67.45 82.45 -67.6 82.35 -67.65 82.2 -68.15 82 -68.6 81.85 -70.5 81.8 -72.65 82 -73 82.75 -73.75 84.1 -73.9
L 87.05 -74.1 87.05 -74.8
Q 85.5 -75 83.9 -74.8 82.75 -74.55 81.1 -74.8
L 78.95 -74.9
M 79.75 -81.9
Q 78.4 -81.75 74.65 -81.9
L 69.95 -81.9
Q 66 -81.9 60.6 -81.65 59.05 -81.45 50.95 -81.9 48.75 -81.9 48.45 -82 47.45 -82 47 -82.2
L 46.2 -82.55
Q 45.9 -82.75 45.75 -83.1
L 45.55 -84.25 44.2 -86.5 47.1 -84
Q 47.3 -84 47.45 -84.15
L 47.35 -84.6 46.55 -86.7 48.9 -84.35 49.35 -83.8
Q 49.45 -83.7 49.8 -83.7 50.05 -83.7 50.25 -83.9 50.5 -84.05 50.35 -84.25
L 49.8 -86.25 51.4 -84
Q 51.7 -83.55 52.3 -83.55
L 53.65 -83.55
Q 52.6 -86.85 51.95 -87.15 51.45 -87.4 50.95 -87.4
L 50.6 -87.4
Q 43.8 -87.4 42.95 -87.6 41.85 -87.8 40.15 -89.2 39.35 -89.85 41.5 -89.85 45.5 -89.85 47 -90 48.45 -90.05 54.9 -89.85 59.15 -89.6 65 -89.85 71.1 -90 74 -89.85
L 85.15 -90.2
Q 93.45 -90.45 94.15 -90.55 95.4 -90.65 96.05 -90.2 96.8 -89.75 96.15 -89.1 95.4 -88.4 94.35 -88.2
L 84.45 -87.75
Q 84.05 -87.75 83.65 -87.05 83.45 -86.85 83 -85.8
L 82.3 -84.45
Q 82 -83.7 82.3 -83.7 83.55 -83.55 83.8 -83.8
L 84.8 -85.25
Q 85.65 -86.45 86.35 -86.85 86.1 -85.6 85.35 -84
L 86.95 -84.15 87.7 -85.35
Q 88.55 -86.45 89.05 -86.85
L 88.4 -84.25 89.65 -84.35 90.75 -85.35
Q 92.1 -86.45 92.65 -86.7 93.15 -87 92.45 -85.95 91.55 -84.45 91.55 -84.35
L 91.75 -83.8
Q 92 -83.4 91.65 -83.1 91.25 -82.75 90.65 -82.45 90.1 -82.25 88.95 -82.1 81.6 -82.1 79.75 -81.9
M 47.9 -79.85
Q 47.9 -80.65 48.9 -80.65 49.8 -80.65 52.95 -80.3 54.9 -80.1 57.7 -80.3 57.8 -76.25 57.7 -75.8 57.7 -75.3 57.55 -75.25 57.3 -75 56.9 -75
L 49.45 -74.45 49.45 -73.9 50.95 -73.55
Q 52.65 -73.3 53.05 -73.45 54.1 -73.5 54.3 -72.45 54.45 -71.4 54.3 -70.3
L 54.3 -69.15
Q 54.3 -68.55 54.2 -68.25 53.95 -67.7 53.2 -67.7
L 49.25 -67.25 49.45 -66.25 52.95 -66.15
Q 55.1 -66.35 55.9 -66.15
L 57.25 -66
Q 57.5 -66 57.7 -65.8 57.9 -65.45 57.9 -65
L 57.8 -61.4
Q 57.8 -61.05 57.35 -60.75 56.95 -60.35 56.55 -60.3 50.95 -59.6 50.25 -59.7
L 48.9 -59.85 48.9 -59.05 54.4 -58.7
Q 54.75 -54.9 54.55 -54.3
L 54.1 -53.4
Q 53.7 -52.85 52.95 -52.85
L 47.65 -52.75 47.55 -53.1 47.65 -66.15
Q 47.55 -66.25 47.8 -67.15 47.9 -68.1 47.8 -68.5
L 47.9 -79.85
M 47.45 -50.95
Q 47.3 -51.25 47.55 -51.5 47.65 -51.6 48.1 -51.6 48.35 -51.75 50.25 -51.6
L 57.7 -52.05
Q 59.15 -52.2 59.15 -51.3
L 59.05 -42.05
Q 59.05 -41.15 58.25 -41.15 49.7 -41.15 48.9 -41.05 47.8 -40.9 47.55 -41.85
L 47.55 -43.85
Q 47.65 -45.05 47.65 -46.45 47.6 -50.15 47.45 -50.95
M 77.5 -51.15
Q 77.35 -51.8 77.7 -52.05 77.95 -52.3 78.7 -52.3
L 83.35 -52.4
Q 86.8 -52.45 87.4 -52.4 88.1 -52.25 88.15 -52.15 88.5 -51.95 88.5 -51.4
L 88.4 -41.15
Q 88.25 -40.7 87.6 -41.05 87.3 -41.15 86.35 -41.05
L 78.85 -40.9
Q 78.05 -40.9 77.8 -41.05 77.35 -41.1 77.35 -41.5
L 77.6 -47.1
Q 77.6 -49.95 77.5 -51.15
M 20.65 -76.25
Q 21.15 -76.35 25.6 -76.05 27.1 -75.9 30.45 -76.35 31.3 -76.5 32.05 -76.35
L 32.15 -76.25
Q 32.95 -76 32.7 -75.7 32.4 -75.2 32.05 -74.9 31.35 -74.35 30.55 -74.35 25.9 -74.25 21.45 -74.25
L 9.4 -74.55
Q 5.8 -74.45 4.15 -74.55 2.9 -74.55 1.55 -75.45 1.1 -75.65 1.2 -76.15 1.35 -76.55 2 -76.5 2.3 -76.4 4.8 -76.25
L 11.2 -76.35
Q 13.25 -76.5 14.05 -76.35 19.6 -76.05 20.65 -76.25
M 16.75 -72.75
Q 18.1 -72.65 18.85 -72.3 20.1 -71.85 20.9 -70.75 21.75 -69.55 22 -68.5 22.25 -67.75 22.25 -66.35 22.7 -67.55 22.7 -69.05 22.7 -70.55 22.15 -71.65 21.7 -72.55 22.7 -72.4 23.75 -72.25 24.95 -72.2 26.3 -72.2 27.3 -72.3 28.25 -72.5 29.35 -72.2
L 30 -72.1
Q 30.25 -71.7 30.1 -70.95 29.9 -69.8 30.1 -61.95
L 30.1 -54.45
Q 30.05 -54.2 29.2 -54.3 28.8 -54.4 24.25 -54.1
L 14.25 -53.65 15.6 -53.2
Q 17.2 -52.75 17.65 -52.75 19.9 -52.5 21.1 -52.3 21.7 -52.15 21.9 -51.3 22.3 -50.6 21.35 -50.6 15.65 -50.75 15.25 -50.85 14 -51.05 13.15 -50.95 12.5 -50.8 12.25 -52.65
L 12.1 -53.55
Q 11.9 -53.95 11.45 -54.1 11.05 -54.3 8.05 -54.45 5.85 -54.65 4.9 -54.65 4.25 -54.65 4.15 -55.35 4 -55.6 4.25 -58.15 4.35 -59.9 4.25 -60.75
L 4.25 -63.9
Q 4.25 -65.65 4.35 -66.25 4.45 -66.6 4.45 -68.15
L 4.35 -72.3 5.7 -72.2
Q 7.1 -72 7.95 -72 9.25 -72 10.65 -72.2 11.15 -72.2 11.45 -72.1 11.65 -71.9 11.35 -71.5 10.85 -70.8 10.55 -69.5 10.1 -68 10.2 -66.45 10.6 -68.4 11.2 -69.6 11.9 -70.85 12.55 -71.4 14.75 -72.9 16.75 -72.75
M 12.8 -50.15
L 14.35 -49.8
Q 16.45 -49.45 16.85 -49.45 17.85 -49.35 22.15 -49.6 22.35 -48.15 21.9 -47.9 21.7 -47.8 20.55 -47.8
L 18.85 -47.9
Q 18.15 -47.9 16.75 -48.1
L 13.45 -48.55 12.9 -48.8 12.8 -50.15
M 34.5 -38.8
Q 35.55 -38.7 37.45 -38.7
L 59.95 -39.15 67.6 -44.85
Q 68.75 -45.7 69.5 -45.3 69.75 -45.25 70.85 -44.3
L 72.55 -43.05
Q 73.15 -42.35 74.65 -41.05 76.5 -39.55 76.9 -39.35
L 78.95 -39
Q 79.25 -39.15 82.55 -39.15
L 115.5 -39.45
Q 119.4 -40.05 120.55 -39.8 121.75 -39.7 129.1 -40.35
L 130.6 -40.35
Q 131.4 -40.35 132.15 -40.5
L 134.4 -40.5
Q 134.85 -40.5 135.2 -40.15 135.4 -39.8 135.1 -39.35
L 134.3 -38.55
Q 133.85 -38.25 132.6 -38.25 129 -38.1 126.2 -37.75 124.2 -37.45 120.55 -37.3 115.95 -37.1 115.15 -37.1
L 109.65 -37
Q 103.25 -36.75 101.25 -36.75
L 80.4 -36.65 81.9 -35.1
Q 83.5 -33.2 83.8 -32.6 84.7 -31.2 87.85 -27.3
L 87.05 -32.05
Q 86.9 -32.25 87.15 -32.6
L 87.85 -32.85
Q 88.85 -33.05 91.65 -33.05 92.7 -33.05 92.7 -32.05
L 92.8 -28.55
Q 92.85 -29.4 93.35 -30.35 94.25 -32.25 95.5 -32.6 96.75 -32.95 97.85 -32.95
L 99.2 -32.7
Q 100.05 -32.65 100.65 -32.4 101.4 -31.95 101.7 -31.25
L 102.45 -29.25 102.7 -32.15
Q 102.55 -32.65 102.8 -32.8 102.95 -33.25 103.5 -33.25
L 104.6 -33.4
Q 105.45 -33.4 106.05 -33.05 107 -32.35 107.2 -31
L 107.3 -31.7
Q 107.7 -32.65 108.3 -33.05 109 -33.35 109.65 -33.5 110.65 -33.6 111.6 -33.15 112.25 -32.9 112.8 -32.35
L 113.5 -32.95
Q 114.45 -33.5 115.75 -33.5 117.15 -33.5 118.1 -32.6 118.6 -32.1 118.8 -31.7
L 119.1 -33.6 130.35 -34.6
Q 133.95 -34.75 134.2 -34.85 135.75 -35.05 135.75 -34.05
L 135.9 -31 135.75 -30.45
Q 135.75 -30.2 135.45 -30 134.8 -29.45 133.65 -28.75 132.4 -27.9 131.5 -27.55
L 129.45 -26.4 128.1 -25.5
Q 127 -24.8 126.3 -24.6 126.05 -24.55 124.3 -23.35 122.35 -22 121.8 -21.8
L 119.35 -20.35
Q 117.3 -19.15 116.85 -19 116.35 -18.75 113.6 -16.85 111.1 -15.25 110.1 -14.8
L 109.65 -14.7 107.1 -13.15
Q 106.95 -13.15 102.15 -10.3
L 100.65 -9.55
Q 99.55 -8.85 99.2 -8.75 95.25 -6.85 94.6 -6.85 93.65 -6.85 93.45 -7.5
L 92.9 -10.3
Q 92 -14.85 90.65 -16.85 89.55 -18.55 89.4 -19.45 89.4 -19.9 89.2 -20.1 88.55 -21.55 88.2 -21.9 88.1 -21.9 87.85 -22.6
L 87.5 -23.5
Q 86.4 -24.45 86.15 -24.95
L 85.6 -26.2 83.45 -29.1
Q 81.6 -31.55 80.75 -32.4 77.75 -36 76.7 -37 74 -39.55 73.2 -40
L 70.95 -41.5 70.2 -42.4
Q 69.6 -42.85 69.15 -42.85 68.2 -42.7 66 -41.15 62.85 -38.4 62.4 -38.1
L 59.7 -35.75
Q 57.05 -33.4 55.35 -31.5 54.35 -30.5 52.5 -28.1
L 50.05 -24.95 48.6 -22.6
Q 47.1 -20.1 46.55 -19 45.85 -17.45 45.2 -14.7 44.35 -11.75 44.1 -10.35
L 43.5 -6.5 42.95 -6.3 32.85 -11.7
Q 32.5 -11.75 32.05 -12.15 31.55 -12.4 31.15 -12.8 30.65 -13.1 29.45 -13.5 27.95 -14.2 27.75 -14.4
L 23.95 -16.85
Q 23.45 -17.35 20.8 -18.75 18.25 -20.15 17.85 -20.55 17.35 -21 16.2 -21.6 15 -22.1 14.95 -22.25 14.55 -22.75 13.6 -23.4 12.4 -24.2 11.8 -24.4 11.25 -24.45 11.25 -24.75
L 11 -25.2
Q 10.45 -25.3 10 -25.5 9.05 -25.75 9 -25.95
L 7.5 -26.85
Q 5.95 -27.75 5.7 -28
L 2.1 -30.35
Q 2.1 -33.7 2 -34.3 2 -34.85 3 -34.85
L 19.1 -33.95 19.3 -31.8 19.75 -32.5
Q 20.35 -33.25 20.9 -33.4 22.2 -33.75 22.7 -33.75 23.95 -33.6 25.15 -32.85 26.75 -33.65 27.75 -33.85
L 28.65 -33.75
Q 29.6 -33.6 29.8 -33.4 30.6 -32.9 30.9 -31.25 31.35 -32.65 32.05 -33.05 32.25 -33.15 32.7 -33.15
L 35.2 -33.15 34.85 -32.4
Q 34.6 -31.5 34.6 -30.8 34.6 -29.65 34.75 -29 35.05 -29.9 35.3 -30.35 36 -31.95 36.55 -32.25 37.3 -32.6 38.45 -32.85 39.65 -33.15 40.15 -33.05
L 41.6 -32.85
Q 42.5 -32.7 42.7 -32.5 43.4 -32 43.85 -31.15 44.6 -29.8 44.75 -28.45 45 -30.3 44.75 -31.6 44.5 -32.4 43.85 -33.15 44.75 -33.3 46.1 -33.05
L 47.55 -32.95 49.35 -33.05
Q 49.85 -33.05 49.9 -32.85 50.3 -32.6 50.05 -32.15 49.75 -31.55 49.25 -29.35 49 -28.5 48.7 -27
L 55.65 -36
Q 53.15 -35.55 52.5 -35.75 52 -36 45.4 -36 42.3 -35.75 40.45 -35.75 36.35 -35.5 34.15 -35.75
L 29.1 -36.1
Q 26.3 -36.1 25.5 -36.2
L 20.1 -36.55
Q 15.55 -36.8 14.5 -36.65 13.25 -36.55 11.45 -36.65 9.7 -36.8 8.4 -37.1 7.4 -37.35 5.7 -37.35
L 3.45 -37.2 1.65 -37.45 -0.65 -38.1
Q -1.3 -38.3 -1.55 -38.7 -1.9 -38.95 -1.65 -39.45 -1.35 -39.9 -0.9 -40.05
L 1.55 -39.8
Q 3.75 -39.6 4.8 -39.6 6.9 -39.7 14.35 -39.35 17.9 -39.35 23.15 -39
L 28 -39.15
Q 31.15 -39.2 31.95 -39.15
L 32.05 -39.15 34.5 -38.8
M 0.75 -28.9
L 1 -25.6
Q 0.85 -25.3 1.1 -25.05 1.45 -24.8 1.65 -24.95
L 6.85 -24.7 7.05 -20.9
Q 7.3 -20.65 8.2 -20.9
L 10.45 -20.9
Q 12.1 -20.75 12.25 -20.9 13.15 -20.95 13.15 -20.35 13.15 -18.4 13.25 -18.1 13.25 -17.5 13.35 -17.5 13.5 -17.3 13.8 -17.3
L 18.85 -17.2 19 -14.5 19.2 -13.8
Q 19.6 -13.35 20.35 -13.35
L 24.4 -13.5
Q 25.05 -13.5 25.15 -12.8
L 25.15 -10.3
Q 25.3 -9.75 26.05 -9.75 27.1 -9.9 29.9 -9.9 30.35 -9.9 30.7 -9.75 31 -9.5 31 -9.2 30.9 -8.45 31 -7.5 31.15 -6.4 32.05 -6.5
L 32.15 -6.5
Q 32.45 -6.65 33.95 -6.5
L 35.95 -6.4
Q 36.6 -6.4 36.85 -6.05 37.1 -5.65 37.1 -5.25 37 -4.7 37.45 -2.55
L 41.15 -2.45
Q 41.75 -2.45 41.95 -2.35
L 42.05 -2.2
Q 42.15 -2 42.25 -1.45 42.5 -0.45 42.5 2.05 39.05 0.15 37.9 -0.65 35.85 -1.85 35.05 -2.2
L 32.05 -4 31.9 -4
Q 26.95 -7.3 26.05 -7.75
L 23.35 -9.1
Q 22.95 -9.5 22.45 -9.75
L 21.9 -10
Q 21.5 -10 21.35 -10.1
L 21 -10.3
Q 19.65 -11.6 19.3 -11.65
L 17.4 -12.55
Q 15.85 -13.35 15.5 -13.45
L 12.45 -15.5
Q 12.05 -15.5 11.8 -15.7 10.35 -16.75 9.85 -16.95
L 7.75 -18.1
Q 6.25 -19 5.95 -19.3
L 4.25 -20.55
Q 2.85 -21.5 2.1 -21.55 1.4 -21.8 1.1 -22.25
L 0.65 -22.9
Q -0.95 -23.85 -2 -24.7
L -2.35 -25.05
Q -2.35 -25.15 -2.1 -25.4
L 0.75 -28.9
M 11.8 -13.95
Q 12.1 -13.7 13.15 -13.35 14 -13.05 14.35 -12.7 16 -11.25 16.85 -11.1
L 18.1 -10.3
Q 14.45 -10.3 13.7 -10.2
L 2.45 -9.75
Q 2.05 -9.75 2 -9.65 1.9 -9.65 1.9 -9.3 1.9 -8.95 2 -8.95 2.1 -8.85 2.45 -8.85 3.35 -8.75 4.6 -8.75 5.8 -8.65 7.05 -8.65 7.95 -8.7 9.75 -8.5
L 10.1 -0.2
Q 9.95 0.05 9.65 0.05 2.9 0.35 2.45 0.5 2.25 0.5 2.1 0.8
L 2.2 1.25
Q 2.35 1.75 4.45 1.5
L 10 1.5
Q 13.7 1.5 14.6 1.25 16.05 0.95 15.95 1.85
L 15.95 5.2
Q 15.95 8.15 15.85 8.45 15.85 8.95 15.95 9.25 15.8 9.65 15.25 9.6 14.95 9.55 13 9.35 11.45 9.15 10.65 9.25 6.45 9.8 5.05 9.8 3.05 9.8 2.65 9.95 2.3 10.05 2.45 10.25 2.45 10.6 2.8 10.6
L 4.7 10.85
Q 5.3 10.95 6.6 10.95
L 8.65 11.05
Q 9.45 10.95 10.3 11.15
L 10.2 19.7
Q 10.2 20.4 9.65 20.4
L 1.45 20.6
Q 0.8 20.6 0.65 20.5 0.55 20.5 0.4 20.15
L 0.4 17.1
Q 0.4 14.55 0.55 13.85 0.65 13.15 0.65 10.5
L 0.4 0.95
Q 0.35 0.35 0.4 -1.3
L 0.55 -6.75
Q 0.55 -9.2 0.4 -9.65
L 0.4 -10.35
Q 0.35 -12 0.55 -13.95 0.65 -14.45 0.55 -17.55
L 0.55 -20.55 4.35 -18.45
Q 6.35 -17.55 7.75 -16.4 9 -15.55 11.8 -13.95
M 23.15 -6.85
Q 23 -7.4 23.5 -7.3
L 26.1 -5.95
Q 26.7 -5.55 27 -5.15 27.1 -5.05 27.55 -5.05 27.9 -4.9 28 -4.7
L 30.35 -3.15
Q 34.2 -1 34.3 -0.9
L 34.75 -0.45
Q 34.85 -0.3 34.3 -0.3 33.4 -0.45 31.8 -0.45 30.05 -0.5 29.45 -0.45
L 27.3 -0.3
Q 25.75 -0.2 25.2 -0.3 24.6 -0.5 23.7 -0.45
L 22.95 -0.45
Q 22.95 -2.7 23.05 -3.35
L 23.15 -6.85
M 67.35 -39.35
Q 68.9 -40.8 69.6 -40
L 73.55 -36.65
Q 77.95 -32.5 79.2 -30.7 79.95 -29.7 80.75 -29.1
L 81.75 -28.45 82.45 -26.85
Q 83 -25.65 83.55 -25.15 84.15 -24.7 84.45 -23.95
L 85.05 -22.6
Q 85.45 -21.8 86.5 -20.2 87.7 -18 87.95 -17.3 88.1 -16.8 88.75 -15.95 89.35 -15.1 89.55 -14.5
L 91.3 -9.3
Q 91.55 -8.7 91.55 -7.3 90.35 -7.5 89.85 -7.5 89.4 -7.5 89.3 -7.75 89.05 -8 89.05 -8.75
L 87.4 -13.45
Q 85.85 -17.2 85.25 -17.85 84.95 -18.15 84.25 -19.55
L 82.8 -22.35
Q 82.4 -23.3 82 -23.5 81.7 -23.75 80.2 -25.95
L 79.5 -26.95
Q 78.95 -27.65 78.4 -27.75 78.05 -27.9 77.7 -28.3 77.25 -29.15 77.05 -29.2 76.8 -29.45 76.25 -30.45
L 75.45 -31.7
Q 75.15 -32.1 74.35 -32.7
L 73.2 -33.6
Q 73.1 -33.85 72.2 -34.4 71.5 -34.85 71.3 -35.2 71.05 -35.7 70.5 -36.1
L 69.75 -36.9
Q 69.55 -37.2 68.95 -37.2 68.5 -37.1 67.95 -36.65 67.3 -36 65.35 -34.75
L 63.2 -32.7
Q 61.55 -31.2 60.6 -30.15 58.35 -27.65 56.1 -25.4 54.6 -23.7 53.95 -22.8 52.6 -20.1 52.05 -19.55
L 50.15 -15.6
Q 49.8 -15.15 49.35 -13.35
L 48.45 -10.3 48.25 -9.3
Q 48.25 -8.6 47.9 -6.5
L 45.3 -6.4 45.65 -10.3
Q 45.85 -12.4 46.35 -13.6 47.9 -17.2 47.9 -17.5 47.9 -17.75 48.25 -18.1
L 48.6 -18.3 49.5 -20.35
Q 50.25 -22 50.6 -22.25 51.3 -22.7 52.05 -24.25 52.9 -25.95 53.1 -26.2
L 56.55 -29.8
Q 59.75 -33 59.95 -33.4 60.3 -33.85 63.75 -36.65
L 67.35 -39.35
M 66.45 -31.45
Q 67.45 -32.25 68.85 -32.25 70.3 -32.25 71.1 -31.8 72.3 -31.05 72.3 -29 74.05 -28.75 74.7 -27.3 75.35 -25.95 74.8 -24.05 75.95 -24.3 76.25 -26.4 77.35 -25.5 77.35 -25.3 77.5 -24.95 77.6 -24.95 78.3 -24.25 79.85 -21.8 80.35 -21.05 81.2 -20.2 82.3 -19.1 82.45 -18.85 85.15 -15 85.6 -13.9 85.85 -12.9 87.05 -10.3
L 87.05 -10.2 87.95 -8.65
Q 88.4 -7.6 88.15 -7.3
L 87.15 -5.7
Q 86.65 -6.2 86.05 -6.6 84.7 -7.25 83.65 -7.05 85.4 -6.15 86.05 -4.8 86.5 -4.1 86.8 -2.65
L 86.95 -2.25
Q 87.75 -0.4 87.75 0.6 87.75 1.05 88.05 2.15 88.4 3.2 88.4 3.5
L 87.95 8.8 88.2 11.95
Q 88.1 12.2 87.95 14.4 87.95 16.45 87.85 17.25 87.7 17.8 87.85 20.95
L 87.75 24.65
Q 87.6 26.6 87.75 30.95
L 85.8 30.85 85.8 24.2
Q 85.95 20.35 86.05 19.95
L 86.05 10.35
Q 85.8 6.15 85.95 4.4 86.05 1.45 85.25 -1.45
L 84.9 -2.25
Q 84.45 -3.05 83.8 -3.7
L 81.75 -5.5
Q 81 -6.2 80.05 -6.4
L 79.4 -6.6
Q 79 -7.9 78.95 -9.1 78.8 -10.2 77.95 -12.15 76.85 -14.3 75.9 -15.3 73.9 -17.55 69.15 -17.55 67.65 -17.55 66.35 -17.2 65.55 -17 64.45 -16.4 63.45 -15.95 62.3 -14.6 61.2 -13.45 60.5 -12.35 60.05 -11.5 59.6 -10 59.15 -8.65 59.15 -8.05
L 59.15 -7.4
Q 59 -7.2 58.6 -7.05 58 -6.85 57.25 -6.4
L 55.55 -5.5
Q 54.6 -4.8 53.5 -3.25
L 52.85 -2.2
Q 52.3 -1.35 52.05 -0.65 51.7 0.45 51.5 2.4 51.15 4.45 51.3 5.3 51.55 6.15 51.6 9.25 51.75 12.4 51.6 14.2
L 51.5 21.85
Q 51.5 26.55 51.4 28.05 51.35 28.55 51.15 32.2
L 49.25 32.55 49.25 23.55
Q 49.25 19.15 49.35 18.25 49.5 17.75 49.5 14.65 49.5 11.5 49.35 10.95
L 49.5 9.25
Q 49.6 7.9 49.35 7.35 49.3 6.9 49.5 6.45 49.7 5.9 49.7 5.65 49.85 4.65 49.5 2.05 49.25 1.1 50.4 -2.2
L 50.6 -2.8
Q 51.3 -4.45 52.95 -6.05 54 -7 54.55 -7.3 52.95 -7.1 51.6 -6.15
L 50.15 -5.15
Q 49.65 -6.1 49.15 -6.5 48.65 -7.05 48.9 -7.75
L 49.6 -10.3
Q 50.6 -13.45 50.95 -13.9 52.05 -15.4 52.95 -17.3 53.3 -18.1 54.65 -19.55
L 56.8 -22.35 61.2 -27.2 61.2 -25.6
Q 61.45 -24.1 62.85 -24.05 62.4 -25.4 63 -26.95 63.75 -28.9 65.45 -28.9 65.15 -30.5 66.45 -31.45
M 55.9 -2.25
L 56.45 -2.8
Q 57.1 -3.25 59.8 -4.05
L 60.85 -4.25
Q 61.3 -4.6 61.3 -5.8 61.15 -7.65 61.85 -9.75 62.7 -12.05 63.65 -12.8 64.8 -13.85 66.7 -14.5
L 68.15 -14.8
Q 68.15 -8.95 68.05 -8.05 67.9 -7.3 68.15 -5.25
L 68.05 -3 67.9 -2.25 67.9 20.4
Q 68.05 21.6 68.05 24.2
L 68.05 25.1
Q 68.05 26 67.9 26.45 67.85 27.05 67.9 32.3 66.5 31.8 63.2 31.4 59.55 30.95 57.35 31.05
L 54 31.65
Q 53.6 26.65 53.85 25.9 54 25.55 54 23.85
L 54.1 22.4 58.8 22.2
Q 60.15 22.05 60.6 22.65 61 22.95 60.5 24.2 60.55 24.35 60.5 24.45 60.35 24.95 59.8 25.2 59.15 25.55 58.25 25.35 58.65 25.75 59.15 25.9 59.6 26 60.5 25.9 61.6 25.75 62.2 24.2
L 62.4 23.55
Q 62.55 22.95 62.4 22.3
L 62.2 21.75 64.75 20.7 62.3 20.4
Q 62.4 19.8 62.4 18.25 62.35 17.5 61.5 16.8 60.65 16 59.7 16.1 58.8 16.1 58.25 16.8 57.85 17.05 57.8 17.35
L 58.35 17.1
Q 58.95 16.9 59.5 16.9 59.95 16.9 60.4 17.45 60.7 17.9 60.85 18.6 60.9 19.05 60.4 19.7 60 20.25 59.15 20.5 58.35 20.6 56.55 20.6
L 54.4 20.6
Q 54 20.6 53.85 20.25
L 53.95 17.7
Q 53.95 15.2 54.1 13.75
L 54.1 6.1 54.65 5.85 57.25 5.85
Q 59.5 5.85 59.7 6 60.55 6.1 60.6 6.3 60.7 6.4 60.7 7.1 60.7 7.8 60.6 8 60.35 8.45 60.05 8.7 59.4 9.3 58.15 9.35 59.4 10.3 61.05 9.45 62.55 8.8 62.3 5.55
L 65.1 4.5 62.85 4.3
Q 62.4 4.3 62.4 4.1 62.35 3.75 62.4 3.2 62.8 2.2 61.6 0.6 61.3 -0.1 60.05 -0.1 58.7 -0.15 57.9 1.15 58.55 0.7 59.5 0.95 60.4 1.25 60.7 1.95 61.05 2.6 60.6 3.3 60.15 3.85 59.35 4.05 58.7 4.2 56.35 4.2
L 54.1 4.05 54.65 0.45
Q 55.15 -1.25 55.9 -2.25
M 69.75 -6.6
Q 69.75 -8.8 69.85 -10.75
L 69.95 -14.8
Q 72.55 -15.1 74.8 -12.9 75.45 -12.25 76.15 -10.1 76.6 -8.95 76.9 -7.4 77.05 -6.95 76.9 -5.95 76.9 -4.9 77.05 -4.7 77.25 -4.2 77.6 -4
L 79.4 -3.7
Q 80.85 -3.3 81.9 -2.2
L 82.55 -1.3
Q 83.6 0.15 83.45 4.2
L 78.15 4.1
Q 77.6 4.1 77.15 3.75 76.8 3.5 76.95 2.6 76.95 1.75 77.25 1.5
L 77.85 1.05
Q 78.35 0.7 79.65 1.15 77.75 -0.6 75.8 0.8 75.15 1.4 75 2.4 74.9 2.95 75 3.65
L 75 3.95
Q 75 4.25 74.9 4.3 74.6 4.5 72.55 4.75
L 74.7 5.55
Q 74.95 5.75 75.15 5.75
L 75.25 6.35
Q 75 7.5 75.45 8.45 75.9 9.5 76.8 9.8 77.95 10.2 78.5 9.95 78.85 9.8 79.3 9.35 78.45 9.6 77.95 9.25 77.45 9 76.95 8.35 76.5 7.75 76.7 7 76.95 6.35 77.6 6.1 78.2 5.75 83.35 6
L 83.25 20.25
Q 82.7 20.55 80.55 20.6 78.2 20.6 77.6 20.4 76.9 20.25 76.7 19.25 76.6 18.25 76.95 17.9 77.45 17.3 77.7 17.25 78.4 16.9 79.5 17.25 78.6 16.2 77.5 16.35 76.7 16.35 75.8 17.1 75.2 17.6 75.15 18.6 75 19.35 75.25 19.7 75.35 20 75.15 20.25 74.95 20.6 74.55 20.6 73.55 20.85 72.75 20.85 73.6 21.5 73.8 21.5 74.2 21.85 74.8 21.85 75.25 21.85 75.35 22.1
L 75.25 22.4 75.15 23.3
Q 75.15 23.95 75.25 24.2 75.35 24.55 75.45 24.65 76.3 26 77.4 26.15 78.4 26.25 79.3 25.55 78.3 25.7 77.6 25.35
L 76.7 24.35 76.6 24.2
Q 76.5 23.7 76.7 23.2 76.95 22.5 77.5 22.2 77.85 21.95 80.2 22.1 82.4 22.1 82.8 22.2 83.6 22.3 83.35 22.85 83.25 23.25 83.25 24.2
L 83.35 30.95
Q 82.15 31.1 80.4 31.55
L 70.95 33.9 69.6 33.1 69.5 24.2 69.5 20.95
Q 69.6 20 69.6 14.9 69.6 10.55 69.75 9.7
L 69.5 0.95
Q 69.65 -1 69.6 -2.25 69.65 -2.75 69.6 -3.25
L 69.6 -4.35
Q 69.75 -5.25 69.75 -6.6
M 132.15 -67.7
Q 132.05 -66.5 132.05 -64.2 132.15 -62.8 132.15 -60.95 132.3 -59.95 132.15 -55.55 132.15 -54.65 131.5 -54.65
L 125.2 -54.1
Q 124.85 -53.95 124.65 -53.3 124.4 -52.7 124.4 -52.3 124.4 -51.4 123.85 -51.3
L 114.5 -50.95
Q 114.05 -51.05 113.95 -51.4 113.8 -51.7 113.95 -52.2 114.05 -52.65 117.55 -52.95 119.95 -53.25 121.15 -53.3 116.2 -53.85 114.25 -53.85
L 112.7 -54.2
Q 112.25 -54.3 111.9 -54.3
L 109.65 -54.3
Q 107.4 -54.4 107.3 -54.45 106.75 -54.5 106.5 -54.75
L 106.4 -55.45
Q 106.7 -58.85 106.6 -59.4 106.45 -60.2 106.4 -63.45 106.4 -66.7 106.5 -67.5
L 106.65 -73.9 113.4 -74
Q 114.5 -74.2 114.05 -73.55 113.5 -72.55 113.4 -70.15 114.95 -72.4 115.4 -72.85 116.75 -74.2 119 -74.35 121.3 -74.4 122.95 -73.2 124.45 -72.2 125.05 -70.2 125.45 -73.1 123.6 -74.1
L 130.35 -74.25
Q 131.4 -74.25 131.7 -74.1 132.3 -73.85 132.15 -73.2
L 132.15 -70.65
Q 132.3 -68.4 132.15 -67.7
M 127.65 -52.85
L 129.25 -52.95
Q 131.1 -53.2 131.6 -53.2 133.7 -53.2 134.3 -53.4 134.9 -53.6 135.1 -53.55 135.45 -53.35 135.45 -52.85
L 135.55 -44.1 135.45 -42.6
Q 135.2 -42 134.1 -41.95 133.35 -41.85 130.7 -41.85
L 128.35 -41.85
Q 127.85 -41.85 127.8 -41.95 127.55 -42.05 127.55 -42.5
L 127.65 -52.85
M 108.3 -85.8
Q 108.9 -85.7 108.9 -85.05
L 109 -79.85
Q 109 -79.05 108.3 -79.05
L 103.15 -78.6 103.25 -84.9
Q 103.05 -85.7 103.8 -85.7
L 108.3 -85.8
M 102.25 -51.25
Q 102.1 -52.3 102.8 -52.3 103.35 -52.5 106.4 -52.75
L 109.65 -52.95 110.35 -52.85
Q 110.85 -52.6 111.55 -52.6 112.15 -52.35 112.15 -51.6
L 111.9 -42.5 111.7 -41.6
Q 111.45 -41.35 110.55 -41.35
L 109.65 -41.5 103.8 -41.25 102.55 -41.35
Q 102.15 -41.5 102 -41.8
L 102.25 -51.25
M 90.45 -0.65
L 91 -0.65
Q 91.35 -0.8 91.65 -0.65 92.6 -0.25 92.45 0.5 92.3 1.3 92.25 6.2
L 92.35 12.4 91.9 25.35
Q 91.9 29.25 92 29.85 92.15 30.15 91.9 30.95
L 91.8 31.3
Q 90.9 31.1 88.85 30.95
L 88.85 28.7
Q 88.75 26.65 88.95 24.2 89.45 21.25 89.3 20.3 89.2 18.9 89.2 16.25
L 89.3 9
Q 89.3 6.95 89.4 6.35 89.75 4.1 89.65 2.6
L 89.65 0
Q 89.65 -0.4 89.85 -0.55 90.05 -0.65 90.45 -0.65
M 94.8 -1.1
Q 94.75 -2 95.6 -2
L 99.85 -2.1 99.85 -4.35
Q 99.8 -5.4 100.65 -5.4 100.95 -5.5 103.15 -5.5 105.1 -5.55 105.5 -5.7
L 106.15 -5.85
Q 106.4 -5.95 106.4 -6.3
L 106.5 -9.55 111.45 -9.65
Q 112.4 -9.55 112.6 -10.35
L 112.6 -12.25
Q 112.6 -12.45 112.7 -12.45 112.7 -12.6 113.05 -12.6
L 117.85 -12.8
Q 118.5 -12.8 118.75 -13.05 119.05 -13.35 119.1 -13.8
L 119.1 -16.2
Q 119.25 -16.5 119.45 -16.5
L 121.5 -16.75
Q 123.4 -16.95 124.3 -16.65 124.85 -16.5 124.85 -16.75
L 124.95 -19.45
Q 124.95 -20.2 126 -20.35
L 130.25 -20.35 130.95 -20.55
Q 131.15 -20.75 131.15 -21.15
L 131.15 -23.6
Q 131.15 -24.4 132.05 -24.4
L 137.55 -24.6 137.8 -28
Q 137.9 -28.75 138.25 -29 138.4 -29.3 138.9 -28.9
L 139.95 -27.75
Q 140.55 -27.15 140.6 -26.85
L 141.75 -24.6 138.9 -22.95
Q 138.9 -22.85 138.7 -22.7 135.7 -20.55 135 -20.25 134.1 -20 133.65 -19.8 132.8 -19.45 132.15 -19
L 126 -15.15
Q 125.55 -14.7 124.2 -13.95 122.9 -13.15 122.5 -13.15 122.2 -13.15 121.35 -12.7
L 120.15 -11.8 111.25 -6.5 110.35 -6.15 109.65 -6.05 109.45 -5.85
Q 109.15 -5.55 108 -5.05 106.7 -4.45 106.5 -4.25
L 104.7 -3.15
Q 103.3 -2.3 102.9 -2.25 101.75 -1.5 100.65 -1
L 94.9 2.4 94.6 2.05 94.8 0.35 94.8 -1.1
M 121.25 -10.3
Q 121.15 -10.4 121.45 -10.65
L 123.05 -11.65
Q 124.6 -12.65 125.4 -12.9 126.2 -13.1 127.55 -14.05 129 -14.95 129 -15.05 129.15 -15.05 130.7 -16.15 131.9 -16.95 132.4 -17.05 133.25 -17.3 137.1 -19.9
L 137.35 -19 137.45 -17.1
Q 137.3 -16.5 137.45 -14.7 137.7 -12.75 137.55 -12.15
L 137.45 -6.05
Q 137.3 -4.6 137.45 -2.35 137.55 -1.3 137.45 2.5
L 137.55 15.45
Q 137.7 16.65 137.55 17.25
L 137.55 19.6 137.45 20.25
Q 137.2 20.65 136.75 20.4 136.45 20.15 135.65 20.25
L 127.75 20.25 127.55 11.4 129.7 11.15
Q 131.7 10.95 132.7 11.05 133.85 11.2 135.85 10.85
L 135.85 9.8 131.7 9.6
Q 128.35 9.35 125.3 9.35
L 123.75 9.35
Q 123.05 9.35 122.8 9.5 122.5 9.6 122.25 9.5 122.15 9.3 122.15 8.8
L 122.05 5.2
Q 121.9 2 121.8 1.85
L 121.9 1.4
Q 122.05 1.25 122.25 1.25
L 128.1 1.4
Q 129.35 1.5 134.3 1.4
L 135.55 1.4 135.55 0.7 129.8 0.05 128.55 0.05
Q 127.9 0.05 127.9 -0.65
L 128.1 -8.5 135.55 -8.85 135.65 -9.65
Q 129.8 -10.15 128 -10.1 126.05 -10.1 125.05 -10.3 124.85 -10.45 124.5 -10.45
L 123.85 -10.3
Q 123.05 -10.2 121.6 -10.3
L 121.25 -10.3
M 138.9 21.75
Q 139.75 21.9 140.25 22.4
L 141.4 24.1 141.5 24.2
Q 142.4 25.5 142.85 25.65 143.4 26.1 143.85 26.9
L 145.2 28.7
Q 145.2 29.15 144.9 29.5
L 143.4 31.65 142.5 31.65 139.35 31.3 132.75 30.15
Q 129.9 29.95 129 29.7
L 123.85 28.95
Q 122.4 28.7 120.15 29.05
L 116.75 29.5
Q 110.85 30.85 108.55 31.65 106.55 32.35 103.6 33.9
L 101.1 35.35 100.65 35
Q 97.3 33.05 93.8 31.85
L 93.8 30.3
Q 93.95 25.75 93.8 24.2 93.9 23.7 93.8 23.55 93.65 22.9 93.8 22.5 93.95 22.1 94.5 22.1 98.3 22.4 99.55 22.2
L 100.65 22.1
Q 102.4 21.95 105.75 21.95
L 110.35 21.95
Q 113.65 21.95 114.5 21.75 115.4 21.55 117.2 21.75
L 119.35 21.95 120 21.5
Q 120.5 21.15 120.7 21.3 121.3 21.65 122.85 21.65
L 137.8 21.65
Q 138.6 21.65 138.9 21.75
M 126 11.5
L 126.2 20.15 118.1 19.95
Q 117.4 19.95 117.1 19.85 116.65 19.6 116.55 19.05 116.4 14.1 116.55 13.4 116.75 12.8 116.75 12.3
L 116.75 11.5 121.35 11.3
Q 123 11.3 126 11.5
M 132.95 33.65
Q 133.85 34.05 135.3 34.1
L 137.25 34.35
Q 135.85 36.1 133.5 38.5
L 130.9 41.1
Q 129.7 42.25 128.8 42.9 128.95 42 129.25 41.1 129.75 39.6 130.35 38.4 131.3 36.6 131.95 35.7 129.45 37.2 126.65 40.3
L 123.15 44.7
Q 122.95 45.25 122.7 45.15 122.55 45.05 122.6 44.45
L 124.05 41.1 125.2 39.2
Q 126.9 36.4 128.2 35.25 128.85 34.7 128.65 34.55 128.4 34.45 127.75 34.9 123.7 37.65 120.8 41.1 119.85 42.15 119 43.35 118.4 44.15 117.3 45.95 117.1 46.4 116.85 46.25 116.55 46.25 116.75 45.8
L 119 41.1
Q 121 37.6 123.85 34.7 124.15 34.3 124.05 34.25 123.85 34.15 123.5 34.35 121.25 35.7 117.9 39.2 117.2 39.9 116.2 41.1 115 42.6 114.5 43.35 113.75 44.4 113.4 45.25 113.4 44.65 113.6 43.35 113.8 42.6 114.4 41.1
L 114.6 40.65
Q 115.8 37.95 118.3 35 115.35 36.9 112.7 39.95 112.05 40.7 111.8 41.1 110.75 42.4 110.25 43.35
L 109.3 45.15
Q 109.3 44.45 109.55 43.35 109.8 42.1 110.25 41.1 111 39.2 112.5 36.7 110.65 38.2 108.55 41.1
L 105.85 45.15
Q 105.65 44.65 105.95 43.35
L 106.6 41.1
Q 107.6 38.95 108.55 37.7 109 37.15 108.65 37.25 108.5 37.25 107.95 37.6 106 39.05 104.35 41.1
L 103.9 41.65 101.9 44.9
Q 101.85 44.3 101.9 43.35
L 102.45 41.1 102.7 40.55 101.8 41.1
Q 100.85 41.7 100 42.45
L 98.3 44.35 98.65 43.35
Q 98.8 42.85 99.3 41.75
L 99.65 41.1
Q 100.6 39.75 101.65 38.85 104.05 36.9 111 34.35 115.25 32.75 117.3 32.75
L 119.8 32.75
Q 121.2 32.55 122.4 32.55 126.5 32.55 127.9 32.9
L 130.5 33.2
Q 132.2 33.35 132.95 33.65
M 117.75 1.05
Q 119.5 1.1 119.9 1.25
L 120.35 1.35
Q 120.45 1.35 120.45 1.7
L 120.45 7.35
Q 120.4 8.95 120.45 9
L 120.6 9.45
Q 120.6 9.55 120.35 9.7
L 110.9 9.7 110.8 1.15 117.75 1.05
M 114.05 11.25
Q 114.75 11.25 114.75 11.6
L 114.85 19.25
Q 114.85 19.6 114.6 19.85 114.35 20.05 113.95 20.05 112.6 19.95 111.55 20.15
L 110.1 20.4
Q 107.8 20.15 107.4 20.3
L 106.05 20.05
Q 105.6 20.2 105.5 19.6
L 105.05 14 105.05 12.5
Q 105.05 12.15 105.4 11.85 105.65 11.6 105.95 11.6
L 114.05 11.25
M 103.25 11.6
Q 103.45 11.75 103.6 12.05 103.9 13.1 103.9 13.65 103.8 14.05 103.8 16.9
L 103.8 19.95
Q 101.55 19.8 100.9 19.95
L 99.65 20.15 98.75 19.95
Q 97.95 19.75 96.85 19.8 95.55 19.8 95.05 19.7 94.35 19.6 94.35 19.25
L 94.15 16.2
Q 94.45 14.05 94.35 13.65
L 94.35 12.3 96.25 12.3
Q 98.2 12.3 98.85 12.15
L 102.25 11.6 103.25 11.6
M 82.9 35.55
Q 82.7 35.7 82.75 36.15 83.15 37.15 83.2 38.85 83.25 39 83.35 40.3
L 83.35 41.1
Q 83.45 42.3 83.35 43.35 83.1 45.35 82.55 46.5 82.5 45.35 82.2 43.35 82.05 42.15 81.75 41.1 81.6 40.25 81.3 39.5
L 81.1 38.85
Q 80.4 37.05 79.95 36.7 79.25 36.25 79.5 36.95 79.7 37.75 79.75 38.85
L 79.85 41.1
Q 79.85 42.5 79.65 43.35 79.4 44.45 79.05 44.9 79.05 44.8 78.75 43.35 78.55 42.15 78.15 41.1
L 77.6 39.5 77.25 38.85
Q 76.6 37.5 76.15 37.15
L 76.25 38.85
Q 76.4 40 76.25 41.1
L 76.05 42.65 74.35 38.85
Q 73.65 37.4 73.2 36.7
L 80.2 35
Q 82.8 34.4 83.45 34.35 84.55 34.15 86.5 34.2 88.2 34.2 89.3 34.45 91.1 34.7 93.8 35.7 97.5 36.9 98.65 38.15
L 98.05 38.85 96.95 41.1 96.4 42.65
Q 96.25 42.95 95.95 41.1
L 95.8 40.5
Q 95.65 39.65 95.4 38.85 95.1 37.6 94.95 37.6 94.75 37.6 94.6 38.85
L 94.25 41.1
Q 94.05 42.6 93.7 43.35 93.6 43.65 93.55 43.7
L 92.1 38.85
Q 91.3 36.45 90.55 35.9
L 90.85 38.85
Q 91.1 40.45 91.1 40.95
L 91.1 41.1
Q 91.2 42.3 91.1 43.35 90.95 44.65 90.4 45.6 90.25 44.4 89.95 43.35 89.8 42.25 89.4 41.1
L 88.85 39.5 88.5 38.85
Q 87.65 36.8 86.8 36.15 87.05 37.3 87.15 38.85 87.25 39.9 87.15 41.1
L 86.95 43.35
Q 86.55 45.5 86.05 46.15 85.95 44.25 85.8 43.35 85.65 42.15 85.35 41.1 85.2 40.15 84.8 38.95
L 84.7 38.85
Q 84 36.65 83.35 35.9 83 35.45 82.9 35.55
M 96.85 47.05
Q 98.9 46.6 99.65 46.6 100.3 46.5 104.95 46.5 106.5 46.5 108.3 46.7 110.2 46.9 110.8 47.15
L 112.7 47.6 114.5 48.3 116.95 49.75 117 49.75 118.1 51.2
Q 118.8 52.5 118.8 53.25 117.75 52.2 116.75 51.55 116.55 51.5 115.3 50.85 116.1 53.05 115.95 55.05 115.95 55.75 115.65 55.05 115.3 54.25 114.4 52.8 112.9 50.55 111.35 49.65 112 51.65 112.15 54 112.15 55.35 111.9 56.5 111 53.65 108.75 51.1 106.7 48.75 105.25 48.75 106.1 50.4 106.75 52.45 107.45 55 107.2 56.4 105.65 53.25 104.25 51.65 102.8 49.9 101.2 49.05
L 100.75 48.95
Q 100.45 48.95 100.65 49.3 101.35 50.2 102 52 103.05 54.7 102.9 56.95 102.9 57.4 102.8 57.4 102.6 57.4 102.45 57.05 99.3 51.1 97.5 50.2 98.4 54.4 98.05 55.6 97.4 54.15 96.5 52.65 95.2 50.95 94.25 50.3 95.05 52.65 94.45 54.35
L 93 52
Q 92.3 51 91.75 50.65 91.75 52.05 91.45 52.55 91.35 52.75 90.75 51.3
L 89.85 48.95 93.35 47.95
Q 94.65 47.55 96.85 47.05
M 95.6 60.55
Q 95.8 60.45 95.6 60.3 95.45 60.25 95.25 60.45
L 93.35 62.1
Q 91.7 63.75 90.65 65.15 90.75 64 91.55 61.45
L 92.45 58.5
Q 92.7 58.2 92.45 58.2 92.3 58.2 92 58.5 91.35 59.2 89.75 61.35 87.75 64.05 86.6 66.4 86.6 64.5 87.6 61.1 88.5 58.1 89.05 57.05 86.55 58.85 84.55 62.1 83.5 63.8 82.55 66.15 82.35 64.2 84 59.75 85.35 56.35 85.9 55.7 86.15 55.35 86.05 55.35 85.9 55.3 85.6 55.5 81 60.2 78.95 66.05 78.7 64.85 79.85 61 80.8 57.35 81.75 55.6 82.2 54.9 81.85 55.05 81.7 55.05 81.3 55.35 80.05 56.7 79.15 57.95 77.1 60.8 76.25 63 76.45 60.1 77.7 56.85 78.6 54.6 79.5 53.25 77.8 54.5 75.7 56.95 73.65 59.2 73 60.75 72.85 59 74 55.8 75.2 52.95 76 52.35 73.55 53.35 71.5 55.5 70.15 56.9 69.85 57.85 69.65 58.25 69.5 58.2 69.4 58.2 69.4 57.85 69.4 57.35 70.05 55.25 70.7 53.1 71.2 52.35 69.65 53.05 68.35 54.45 67.5 55.3 67.15 56.15 67 56.5 66.8 56.5 66.7 56.5 66.7 56.05 66.7 54.95 66.8 54.35 67.05 52.8 68.15 51.65 68.6 51.15 68.15 51.2
L 67.15 51.65
Q 66.55 51.9 65.65 52.55 64.55 53.4 63.85 54.35 63.3 55.05 63.4 53.8 63.6 52.6 64.1 52.1 62.5 51.85 60.05 52.9 61.7 51.1 64.65 50.4 66.95 49.85 70.15 49.85 73.1 49.85 76.45 50.1 80.15 50.4 81.75 51
L 85 51.75
Q 86.55 52.15 87.15 52.45 89.55 53.9 90.4 54.35
L 96.7 57.95
Q 98 58.8 99.4 60.2 96.05 63.7 95.15 64.15 95 63.4 95.25 62 95.5 60.75 95.6 60.55
M 46.9 1.5
Q 47.45 1.35 47.55 1.5 47.65 1.55 47.65 1.95
L 47.8 3.6
Q 48.05 5.2 47.8 6.65 47.6 7.7 47.65 8.7 47.65 9.3 47.8 9.8
L 47.8 12.05
Q 47.9 14 47.8 14.65 47.65 15.35 47.65 19.05
L 47.8 23.75 47.35 33 46.55 33.1 45.1 33.45 45.1 17.45
Q 45.1 15.8 44.95 14.65 44.9 13.75 45.1 11.95
L 45.2 9.6
Q 45.15 9.2 44.95 6.35
L 45 6.35
Q 44.85 3.85 45 3.4
L 45 1.7 46.9 1.5
M 42.25 4.1
Q 42.5 4.6 42.5 5.1
L 42.7 8.9 42.85 9.5
Q 42.85 9.75 42.4 9.8
L 39.8 9.8
Q 39.45 9.8 39.45 9.15 39.45 2.9 39.35 2.6 39.2 2.3 39.35 2.3 39.6 2.3 39.8 2.4 40.1 2.45 41.15 3.2 42.2 3.9 42.25 4.1
M 41.15 23.2
Q 42.85 23.2 42.85 24.3
L 42.95 30.95 42.85 31.75
Q 42.6 33.2 42.85 34.2
L 41.25 34.8
Q 40.55 34.25 39.15 33.75 37.35 33.1 33.75 32.55 29.8 31.75 23.7 31.05 21.9 30.85 15.25 31.2
L 6.25 31.75
Q 3.45 31.85 -2.8 32.65
L -4.6 32.85 -6.6 30.05 -7.05 29.15
Q -7.2 28.75 -6.85 28.5
L -3.25 24.65 -2.8 24.3
Q -2.05 23.85 -0.55 22.65 -0.15 22.3 1.35 22.3
L 6.75 22.2
Q 8.3 22.2 10.45 22.4 12.65 22.65 13.25 22.5 14.4 22.45 17.75 22.65 20.8 22.7 21.9 23 24.35 23.2 25.05 23.2 27.35 23.35 28.65 23.1 29.95 22.95 32.4 22.95
L 41.15 23.2
M 52.6 34.9
Q 53.55 34.65 55.65 34.35
L 56.25 34.2
Q 58 34.05 58.6 34.2 58.95 34.3 61.3 34.55 63.6 34.95 64.65 35.35 68.9 37 70.05 38.15
L 70.65 38.85
Q 71.7 40 72.45 41.1 73.35 42.3 73.75 43.35
L 74 43.9
Q 74.2 44.6 74.9 45.95
L 75.8 48.4
Q 73.6 45.2 72 43.35
L 71.75 43
Q 70.75 41.85 69.95 41.1 68.3 39.6 66.6 38.95
L 68.25 41.55
Q 68.6 42.15 68.95 43.35 69.4 44.55 69.6 45.6
L 67.95 43.35
Q 66.8 42 65.8 41.1 64.55 39.85 63.3 38.95
L 63.1 38.85
Q 61.2 37.3 59.85 36.95
L 59.25 36.8 59.7 37.25
Q 60.5 38.05 61.05 38.85
L 62.3 40.5 62.65 41.1
Q 63.5 42.25 64 43.35 64.9 45.05 65.1 46.35 63.6 44.25 62.75 43.35 61.6 42 60.6 41.1 60.15 40.65 59.15 39.85 58.7 39.45 57.8 38.85 57.1 38.25 56.25 37.8
L 55.65 37.7
Q 55 37.5 55 37.6
L 55.35 38.05
Q 55.75 38.4 56.1 38.85
L 56.25 38.85 58.15 41.1
Q 59.15 42.25 59.8 43.35 61.1 45.2 61.6 46.6 60.4 45.3 58.35 43.35
L 57.35 42.45
Q 54 39.3 51.85 38.85 53.95 41.2 55.2 42.9
L 55.45 43.35
Q 56.65 45.15 57.25 47.05 57.45 47.7 57.25 47.7 57.05 47.7 56.8 47.4 55.85 45.95 54.1 44
L 53.4 43.35
Q 51.35 41.2 49.25 40.05 48.85 39.85 48.45 39.85 48.1 39.95 48.55 40.3 49.25 40.75 50.95 43.35
L 51.15 43.55
Q 53.3 46.55 53.75 48.05 53.8 48.6 53.75 48.6 53.55 48.6 53.3 48.4 51.85 46.5 50.25 44.8 49.2 43.75 48.7 43.35 46.25 41.3 44.2 40.75 45.7 42.25 46.55 43.35
L 47.9 45 49.6 47.6 49.8 48.3
Q 49.55 48.4 49 47.95 45.75 44.9 43.5 43.35 42.15 42.35 41.05 41.85 40.4 41.65 40.25 41.75 40.1 42 40.8 42.45 41.4 42.85 41.8 43.35
L 42.6 44.1
Q 43.6 45.4 44.4 47.05 40.5 44.6 37.65 43.45
L 36.4 43.2
Q 36.3 43.2 36.2 43.35
L 36.75 43.9
Q 38.25 44.8 39.8 47.4
L 34.6 45.35
Q 33.8 45.25 32.6 45.6
L 31.35 45.9 34.15 43.35
Q 36.5 41.35 37.65 40.75
L 42.05 38.25
Q 42.25 38.25 42.85 37.95
L 45.1 37.05
Q 46.5 36.45 47.9 36.15 50.7 35.5 52.6 34.9
M 24.05 9.7
Q 23.25 9.85 20.65 9.7
L 18.1 9.7
Q 17.4 9.85 17.4 9.15
L 17.5 1.35 27.1 1.25 27.2 9.7
Q 25.4 9.65 24.05 9.7
M 21.1 11.5
Q 21.25 11.65 21.25 11.95 21.45 18.45 21.35 19.15 21 19.85 21 20.05 21 20.4 20.65 20.4
L 17.05 20.25
Q 16.7 20.25 16.4 20.4
L 15.95 20.6
Q 15.4 20.4 15.05 20.4
L 11.8 20.4 11.65 17.9
Q 11.65 15.45 11.8 15.2
L 11.9 11.5
Q 11.9 11.4 12.1 11.4
L 16.75 11.15
Q 17 11.25 18.85 11.4
L 20.45 11.5
Q 20.9 11.45 21.1 11.5
M 14.15 34.35
Q 16.85 34.15 17.65 34.2
L 23.25 34.55
Q 24.65 34.45 25.5 34.45 26.8 34.3 27.55 34.55 33 35.65 33.85 36
L 37 36.9 34.3 39.4 34.05 38.85 33.95 37.5
Q 33.55 37.75 32.85 38.85
L 32.4 39.6
Q 31.4 41.25 31.25 42.1 30.8 41.05 30.8 38.85
L 30.9 37.25
Q 30.3 38.05 29.9 38.85
L 28.35 43.35
Q 27.75 45.05 27.45 46.6 27.15 44.75 27.1 43.35 27.05 41.6 27.2 38.85
L 27.3 36.9
Q 26.65 37.7 26.05 38.85 25.3 40.4 24.75 42.45
L 24.4 43.35 23.15 47.85
Q 22.8 45.75 22.95 43.35
L 23.8 36.7
Q 24.15 35.55 23.15 36.6 22.7 37.1 22 38.85
L 20.55 43.35
Q 19.85 45.85 19.65 48.05 19.3 46.45 19.45 43.35
L 19.65 38.85
Q 20 36.3 20.25 35.55 19.3 36.9 18.45 38.85 17.95 39.95 17.2 42.3
L 16.85 43.35
Q 16 45.9 15.85 47.25 15.5 46.6 15.5 43.35
L 15.7 38.85
Q 15.85 36.4 16.15 35.55 15.2 36.25 14.05 38.85
L 13.7 39.95
Q 13.1 41.9 12.8 43.35 12.55 44.6 12.55 46.05 12.1 45 11.9 43.35
L 11.8 38.85
Q 11.9 36.75 12.1 35.7 11.45 36.7 10.45 38.85
L 10.2 39.3
Q 9.25 42 9 43.35
L 8.85 43.8 8.75 43.35
Q 8.55 41.7 8.65 38.85
L 8.75 36.25
Q 8.1 36.7 7.05 38.7
L 6.95 38.85
Q 6.15 40.65 6.05 41.85 5.5 40.4 5.4 38.85 5.25 37.75 5.5 36.45 4.7 37.3 4.15 38.85
L 4.05 39.15 3.8 38.85
Q 3.35 37.75 3.15 36.8
L 3 35.7 5.5 35.1
Q 8.55 34.55 10 34.55 11.55 34.55 14.15 34.35
M 1.35 30.05
Q 2.7 30 6.6 29.5
L 12.9 28.8 4.15 28.6
Q 0.95 28.25 -0.55 28.35 -1.6 28.35 -2.35 28.25
L -3.25 28.15 -3.7 28.7
Q -4 29.05 -3.8 29.25
L -2.9 30.4 -2.8 30.4 1.35 30.05
M 11.45 26.25
Q 12.45 26.25 13.15 26.35 14.35 26.45 20.1 26.35 15.45 25.65 14.85 25.65
L 10.9 25.35
Q 10.25 25.2 4.6 24.9
L 0.3 24.65 -0.75 25.9 0.75 26
Q 2.55 26.15 3.6 26.15
L 3.6 26.1
Q 5.25 26.05 9.45 26.1
L 11.45 26.25
M 140.6 26.9
Q 139.6 27 138.9 27 135.45 27.3 128.65 27.45 130.65 28.05 135.65 28.5
L 140.95 28.95
Q 142 29.05 142.05 28.25
L 140.6 26.9
M 138.9 25.45
L 139.6 25.45 138.25 24 124.65 25
Q 127.6 25.3 138.9 25.45
M 135.55 18.15
L 135.55 16.9 130.25 17.25 135.55 18.15
M 135.55 15.1
L 135.65 13.4 130.7 13.95 135.55 15.1
M 135.65 5.1
L 135.55 3.75
Q 131 3.75 127.55 4.1 129.15 4.45 135.65 5.1
M 135.55 7.55
L 135.55 6.45
Q 132.5 6.45 128 6.75 129.8 7.1 135.55 7.55
M 135.4 -11.55
L 135.55 -13.15 127.9 -12.45 135.4 -11.55
M 135.3 -2
L 135.4 -3.45
Q 133.3 -2.9 130.45 -2.55 132.35 -2 135.3 -2
M 131.25 -5.6
Q 130.15 -5.4 130.9 -5.15 132.1 -5 135.3 -4.95
L 135.55 -6.75 131.25 -5.6
M 135.4 -14.4
L 135.55 -15.95 131.35 -15.05 135.4 -14.4
M 104.5 -80.4
L 107.1 -81.3 104.5 -81.75 104.5 -80.4
M 104.5 -84.1
L 104.5 -82.65 107.1 -83.55 104.5 -84.1
M 134.1 -43.95
L 133.95 -45.45
Q 132.45 -44.9 129.6 -44.75 130.95 -44.15 134.1 -43.95
M 133.95 -47.1
L 134.1 -48.8 129.6 -47.55 133.95 -47.1
M 134.1 -50.25
L 134.1 -51.75
Q 132.45 -50.95 129.45 -50.5 130.35 -50.15 134.1 -50.25
M 109.65 -66.25
L 109.45 -66.25 108.2 -66.15 108.2 -65 109.65 -65.35 111.7 -65.55
Q 110.85 -66.15 109.65 -66.25
M 108.2 -71.2
L 110.1 -71.3 112.15 -72.1 108.1 -72.45 108.2 -71.2
M 108.3 -60.4
L 108.3 -58.95 111.8 -59.7 108.3 -60.4
M 108.3 -63.2
L 108.3 -61.95 111.35 -62.4 108.3 -63.2
M 109.9 -69.15
L 109.65 -69.25 108.3 -69.4 108.3 -67.8 109.55 -68.05 109.65 -68.05
Q 110.95 -68.25 112.05 -68.35 111.55 -68.85 109.9 -69.15
M 127.9 -59.6
L 130.15 -58.8 130.25 -60.05 127.9 -59.6
M 130.15 -61.95
L 130.15 -63.3 127.3 -62.65 130.15 -61.95
M 127.3 -65.9
Q 128.25 -65.35 130.35 -65.1
L 130.35 -66.45
Q 128.5 -66.45 127.3 -65.9
M 123.15 -69.15
Q 123.1 -70.6 121.9 -71.4 120.95 -72.2 119.35 -72.2 117.4 -72.25 116.1 -70.6 115.1 -69.3 114.85 -67.45 114.75 -66.5 114.75 -58.7
L 114.6 -55.75 118.1 -55.65
Q 119.55 -55.65 122.5 -56 122.85 -56 123.05 -56.1 123.3 -56.35 123.3 -56.65
L 123.3 -60.4
Q 123.55 -66.45 123.15 -69.15
M 130.35 -68.25
L 130.35 -69.5
Q 127.9 -69.5 126.85 -69.05 127.45 -68.65 130.35 -68.25
M 130.6 -71.2
Q 130.6 -72.25 130.25 -72.3 129.75 -72.55 128.9 -72.4 127.75 -72.35 126.85 -71.85 127 -71.8 127.65 -71.5
L 128.35 -71.2
Q 128.9 -71.05 130.6 -71.2
M 75.15 -19.45
Q 74.95 -19.65 74.45 -19.65
L 73.2 -19.8 75.35 -18.65
Q 76.3 -18.2 78.6 -15.05 79.1 -14.45 79.75 -12.7
L 80.55 -10.55
Q 80.8 -9.65 80.85 -8.55
L 82 -8.4
Q 81.75 -9.3 81.75 -9.9 81.75 -10.45 81.55 -11.1
L 80.75 -13.7
Q 80.3 -15.25 79.3 -16.5
L 77.95 -17.85
Q 77.35 -18.45 76.25 -18.75
L 75.6 -19 75.15 -19.45
M 58.5 -12.45
Q 59.45 -14.7 60.6 -16.2 61.8 -17.55 62.75 -18.2 63.95 -18.9 66 -19.8 62.15 -19.4 58.15 -15.05 57.4 -14.25 56.55 -11.8 56.1 -10.5 55.8 -9.1 55.45 -7.75 56.1 -8.2 56.6 -8.45 56.8 -8.65 57.3 -8.95 57.35 -9.55 57.35 -10.15 58.5 -12.45
M 67.15 -28
Q 67.4 -27.3 66.7 -27.3 65.05 -27.45 64.8 -25.75 64.8 -24.85 65.25 -24.4 65.65 -24.05 66.45 -24.05 67.15 -24.2 67.15 -23.5 67 -22.65 67.25 -22.15 67.7 -21.5 68.95 -21.35 70.2 -21.25 70.5 -22.25 70.9 -22.9 70.65 -23.6 70.65 -24 70.85 -24.05
L 71.4 -24.05
Q 72.5 -24.2 72.9 -24.6 73.25 -25.25 73.1 -25.95 73.05 -26.6 72.3 -27.1 71.55 -27.4 71.2 -27.3 70.25 -27.3 70.65 -28 70.85 -28.25 70.75 -28.65 70.75 -29.15 70.4 -29.45 69.75 -30.25 68.25 -29.8 67.65 -29.6 67.25 -28.9
L 67.15 -28
M 2.45 17
Q 2.35 17 2.35 17.45
L 2.45 18.15
Q 2.45 18.6 3 18.35 7.45 17.6 7.2 17.35
L 2.45 17
M 2.55 -3.7
L 2.45 -2 3 -2 4.95 -2.2
Q 6.55 -2.35 7.65 -2.65
L 2.55 -3.7
M 3.25 -12.9
L 2.7 -12.9 2.45 -12
Q 2.45 -11.55 2.9 -11.65 3.25 -11.75 6.05 -12
L 10.45 -12.35
Q 7.7 -12.55 6.5 -12.55
L 4.35 -12.9
Q 4.05 -13.05 3.25 -12.9
M 2.45 -15.95
L 2.45 -14.7
Q 2.65 -14.25 3 -14.5
L 7.4 -14.95
Q 6.8 -15.35 5.6 -15.5
L 2.45 -15.95
M 2.55 14.9
L 4.6 14.65
Q 6.8 14.45 7.5 14.2 6.35 13.8 4.5 13.55
L 2.55 13.3 2.55 14.9
M 2.55 6.65
L 2.55 7.9 5.85 7.55
Q 9.3 7.25 10.65 6.8 9.3 6.65 5.85 6.65
L 2.55 6.65
M 7.75 4.3
Q 10.75 3.85 9.75 3.85 8.65 3.85 5.7 3.65
L 2.55 3.3 2.55 3.85
Q 2.55 4.4 2.8 4.75 4.6 4.75 7.75 4.3
M 4.8 -6.4
L 2.7 -6.7 2.45 -5.8
Q 2.45 -5.35 2.8 -5.35
L 4.35 -5.35
Q 5.95 -5.55 8.2 -6.05 7.05 -6.05 4.8 -6.4
M 9 -30.35
L 5.8 -30.7
Q 5.15 -30.7 5.5 -30.1 5.95 -29.35 6.5 -29.35 6.95 -29.2 8.75 -29.45 10.65 -29.65 12.1 -30 11.3734375 -30.0109375 9 -30.35
M 4.8 -33.15
Q 4.25 -33.3 4.15 -32.8
L 4.15 -32.5
Q 4.2 -32.15 4.8 -32.15
L 7.6 -32.05
Q 9.3 -32.05 12.45 -32.35
L 4.8 -33.15
M 37.75 -30.35
Q 36.95 -29.4 36.75 -28.55 36.55 -27.95 36.4 -24.95
L 36.4 -21.9
Q 36.55 -21.55 36.4 -21.25 36.2 -20.7 36.2 -20.35 36.2 -14.35 36.3 -13.15 36.5 -12.35 36.55 -12.25
L 38 -11.35 41.35 -9.75
Q 41.85 -9.65 42.15 -10.1 42.5 -10.45 42.5 -10.9
L 42.6 -16.5
Q 42.7 -17.5 42.7 -20.1 42.65 -22.25 42.7 -24.75
L 42.75 -28.1
Q 42.75 -29.45 41.8 -30.35 40.9 -31.25 39.8 -31.25 38.85 -31.4 37.75 -30.35
M 134.65 -32.95
Q 134.65 -33.5 133.95 -33.4 131.4 -32.75 124.85 -32.15 127.7 -31.85 134.65 -32.05
L 134.65 -32.95
M 123.95 -29.7
Q 126.7 -29.15 131.05 -29
L 133.65 -30.45
Q 128.05 -29.75 123.95 -29.7
M 117.4 -22.35
Q 117.75 -22.75 117.75 -23.25 116.35 -22.45 115.3 -22.6 114.7 -22.65 113.95 -23.05
L 113.15 -23.4 112.6 -23.05
Q 112 -22.65 111.45 -22.6 110.5 -22.45 109.65 -22.8 109.2 -22.9 109 -23.05 108.8 -23.25 108.65 -23.15 108.5 -22.95 108.75 -22.7
L 109.45 -21.9 109.65 -21.8
Q 110.2 -21.4 110.8 -21.35 112 -21.15 112.8 -21.45 113.25 -21.65 113.4 -21.9
L 114.15 -21.45
Q 115.15 -21.1 115.75 -21.25 116.85 -21.55 117.4 -22.35
M 100.65 -19.3
L 100.8 -23.8
Q 100.8 -26.2 100.65 -27.65
L 100.65 -19.3
M 111 -31.5
Q 110.1 -31.55 109.65 -31.35
L 109.45 -31.15
Q 108.55 -30.15 109.55 -29
L 109.65 -28.9
Q 110.15 -28.3 110.8 -28 110.25 -27.55 109.9 -27
L 109.65 -26.65
Q 109.3 -25.8 109.65 -25.3
L 109.8 -25.05
Q 110.55 -24.15 111.7 -24.6 112.55 -24.8 112.8 -25.3 112.95 -25.5 113.05 -25.5 113.25 -25.5 113.25 -25.4 113.6 -24.95 114.4 -24.6 115.3 -24.15 115.95 -24.6 117 -25.5 116.75 -26.55 116.7 -27.2 116.05 -27.65
L 115.85 -28.1
Q 115.8 -28.3 116.05 -28.45 116.35 -28.6 117 -29.45 117.4 -30.05 117.1 -30.7 116.7 -31.5 115.95 -31.7 115.25 -31.95 114.5 -31.5
L 113.5 -30.7
Q 113.1 -30.45 112.9 -30.6
L 112.35 -31.05
Q 112.05 -31.35 111 -31.5
M 27.2 -22.8
Q 26.1 -22.95 25.5 -23.35 25.15 -23.6 25.05 -23.6 24.8 -23.7 24.4 -23.5 22.55 -22.35 20.55 -23.6
L 21.15 -22.5
Q 21.45 -21.95 22.35 -21.7 23.2 -21.5 24.05 -21.8 24.55 -22 24.85 -22.25 25 -22.25 25.4 -21.9 26 -21.55 27 -21.55 28.15 -21.55 28.75 -22.25 28.9 -22.3 29.8 -23.7 28.65 -22.7 27.2 -22.8
M 28.55 -31.6
Q 27.95 -32.15 26.85 -31.7
L 25.05 -30.8
Q 24.1 -31.9 23.25 -32.15 22.4 -32.25 21.55 -31.45 20.75 -30.75 21.35 -29.8 21.6 -29.3 22.25 -28.75 22.95 -28.45 22.25 -28 21.95 -27.65 21.55 -26.85 21.35 -25.95 21.9 -25.4 22.55 -24.75 23.25 -24.6 24.05 -24.6 25.05 -25.6 26.1 -24.95 26.5 -24.85 27.4 -24.6 28.3 -25.3 29.1 -26.05 28.65 -27.1
L 27.65 -28.3
Q 28.8 -29.35 29 -29.8 29.55 -30.8 28.55 -31.6
M 28.45 -69.25
L 28.55 -70.6 23.95 -70.15 26.2 -69.25
Q 26.95 -69.15 28.45 -69.25
M 16.65 -71.2
L 16.6 -71.2
Q 15.5396484375 -71.1939453125 14.95 -70.85
L 13.8 -70.15
Q 13.15 -69.7 12.9 -69.25 12.65 -68.7 12.35 -67.6 12.15 -66.6 12.15 -64.1
L 12.15 -60.75
Q 12.15 -57.3 12.25 -56.1 14.8 -55.55 20.1 -56
L 20.35 -66.55
Q 20.2009765625 -71.3662109375 16.65 -71.2
M 28 -59.05
L 28 -60.4 24.25 -59.35 28 -59.05
M 28.45 -65.45
L 28.45 -67.15
Q 26.2 -66.9 24.4 -66.1
L 28.45 -65.45
M 28.2 -62.5
L 28.2 -64.1 24.6 -63.3 28.2 -62.5
M 6.85 -60.15
L 5.95 -60.25 6.05 -59.05 6.95 -59.15
Q 8.1 -59.4 8.5 -59.7 7.9 -60.05 6.85 -60.15
M 6.05 -63.85
L 6.05 -62.65 7.65 -62.65 8.85 -63.2
Q 8.15 -63.7 7.65 -63.75
L 6.05 -63.85
M 8.85 -66.25
Q 9.45 -66.45 9.3 -66.55 9.2 -66.7 8.75 -66.8
L 6.15 -67 6.25 -66 7.3 -66
Q 8.7 -66.15 8.85 -66.25
M 7.85 -70.5
Q 7.6 -70.65 6.75 -70.5
L 5.8 -70.5 5.95 -69.5 7.75 -69.5
Q 8.2 -69.5 9.4 -70.05
L 7.85 -70.5
M 49.25 -62.55
L 49.25 -61.4 54.3 -62.1 49.25 -62.55
M 49.15 -54.3
L 50.6 -54.3
Q 51.3 -54.3 52.5 -54.75
L 49.25 -55.35 49.15 -54.3
M 49 -57.45
L 49 -56.45 50.35 -56.45
Q 51.4 -56.65 52.6 -57.15
L 49 -57.45
M 49.35 -64.8
L 49.35 -63.65 50.6 -63.75
Q 51.15 -64 54.4 -64.45
L 49.35 -64.8
M 49.5 -72.2
L 49.5 -71.2 52.05 -71.65 49.5 -72.2
M 49.5 -70.05
L 49.5 -68.95 52.05 -69.5 49.5 -70.05
M 49.6 -77.05
L 49.7 -75.9 52.05 -76.25
Q 54.55 -76.45 55.55 -76.8 55.05 -76.9 52.05 -76.9
L 49.6 -77.05
M 49.6 -79.3
L 49.6 -78.25 51.95 -78.15
Q 54.3 -78.15 55.8 -78.4
L 49.6 -79.3
M 57.7 -87.05
L 55.9 -87.05 57.7 -83.7 58.8 -83.7 57.7 -87.05
M 55.1 -87.15
L 52.85 -87.25 55.1 -83.7 56 -83.7 55.1 -87.15
M 61.15 -83.7
L 61.05 -87.05 59.35 -87.05 60.25 -83.7 61.15 -83.7
M 79.3 -83.65
L 80.75 -83.9 82.8 -87.4 81 -87.4 79.3 -83.65
M 67.25 -87.05
L 66.1 -87.05 66.7 -83.25 67.25 -87.05
M 64.3 -87.05
L 62.4 -86.95 63.1 -83.55 64.2 -83.55 64.3 -87.05
M 70.5 -87.15
L 69.5 -87.05 69.85 -83.7 70.5 -87.15
M 80.05 -87.4
L 78.4 -87.3 76.9 -83.9 78.05 -83.8
Q 78.45 -84.05 80.05 -87.4
M 74 -87.15
L 72.1 -87.05 72 -83.55 72.65 -83.7 74 -87.15
M 75.8 -87.3
L 75.55 -87.15
Q 75.35 -87.05 75.35 -86.85 75.35 -86.7 74.7 -83.8
L 75.25 -83.8 77.25 -87.4 75.8 -87.3
M 87.15 -78.4
L 87.05 -79.6 81.9 -78.85 87.15 -78.4
M 86.7 -54.85
L 86.7 -55.9 84.15 -55.2 86.7 -54.85
M 86.85 -56.8
L 86.7 -57.7 84.35 -57.1 86.85 -56.8
M 87.05 -62.85
L 82.55 -62.05 87.05 -61.6 87.05 -62.85
M 87.05 -64.1
L 87.05 -65.45 82.65 -64.55 87.05 -64.1
M 87.05 -71.3
L 87.15 -72.55
Q 85.5 -72.55 83.8 -71.85
L 87.05 -71.3
M 86.95 -69.05
L 87.05 -70.15 83.7 -69.7 86.95 -69.05
M 87.15 -76.25
L 87.15 -77.15 81.55 -76.9 87.15 -76.25
M 65.45 -76.9
Q 65.1 -76.1 65.35 -74.35
L 65.2 -55.3
Q 65.2 -55 65.35 -54.85 65.35 -54.65 65.65 -54.65 69.4 -54.65 70.3 -54.75 71.2 -54.9 71.2 -55.45 71.05 -58 71.05 -60.5
L 71.2 -72.65
Q 71.2 -75.15 70.85 -76.8 70.65 -78.05 69.85 -78.5 69.35 -78.7 68.15 -78.85 66 -78.9 65.45 -76.9
M 59.7 -96.05
L 57.1 -96.3 57 -94.6 62.5 -95.7
Q 60.75 -95.85 59.7 -96.05
M 57 -97.6
L 61.5 -98.2 57.1 -99.1 57 -97.6
M 58 -92.1
L 58.5 -92.25 61.85 -93
Q 58.35 -93.6 57.15 -93.45 57 -92.7 57.25 -92.35
L 57.35 -92.25
Q 57.65 -92.1 58 -92.1
M 132.85 -83.65
L 132.7 -85 130.9 -84.35 132.85 -83.65
M 132.85 -80.95
L 132.85 -82.65
Q 131.8 -82.55 130.6 -81.75
L 132.85 -80.95
M 5.25 -46.55
Q 5.65 -46.6 5.5 -46.75 5.5 -46.85 5.25 -47
L 1.2 -47.9 1.2 -46.65
Q 1.2 -46.3 1.45 -46.3
L 5.25 -46.55
M 1.65 -44.3
L 1 -44.5 1 -43.05
Q 3.6 -42.95 5.95 -43.85
L 3 -44.05 1.65 -44.3
M 1.2 -51.15
L 1.2 -49.8 3 -49.7
Q 3.9 -49.7 5.85 -50.15
L 3.45 -50.6
Q 2.85 -50.6 2 -50.95
L 1.2 -51.15
M 5.05 -80.75
L 3.35 -81.2 3.35 -80.05 4.05 -80.2
Q 4.8 -80.25 5.05 -80.75
M 5.95 -82.75
Q 6.05 -83 5.6 -83
L 4.8 -83.1 3.25 -83.55 3.25 -82.45
Q 5.8 -82.45 5.95 -82.75
M 30.9 -79.3
L 31.15 -80.65 28.2 -79.75 30.9 -79.3
M 31.15 -81.75
L 31.15 -83.65 28.1 -82.45
Q 29.25 -81.65 31.15 -81.75
M 41.7 -94.95
L 43.3 -95.15
Q 45.2 -95.55 45.75 -95.85
L 41.6 -96.3 41.7 -94.95
M 43.05 -97.4
Q 44.75 -97.55 45.3 -97.85
L 41.6 -98.85 41.7 -97.3 43.05 -97.4
M 42.15 -93.7
L 41.6 -93.6 41.6 -92.45 45.55 -93 43.5 -93.6
Q 42.9 -93.75 42.15 -93.7
M 91.1 -98.95
L 95.15 -98.05 95.4 -99.65 91.1 -98.95
M 94.8 -95.8
L 94.95 -97.05 90.75 -96.5 94.8 -95.8
M 95.15 -93.35
L 95.05 -94.9 90.75 -93.9 95.15 -93.35
M 80.1 -93.9
L 75.6 -93.1 80.2 -92.55 80.1 -93.9
M 79.85 -97.75
Q 80.3 -98 79.95 -98.95
L 75.6 -98.5
Q 79.3 -97.5 79.85 -97.75
M 80.2 -94.9
L 80.2 -96.6 75.9 -95.6 80.2 -94.9
M -22.95 21.05
L -23.05 21.5
Q -23.05 22.1 -23.4 22.65 -24.15 23.55 -26.85 24.9 -29.1 25.9 -30.35 25.9 -31.15 25.9 -31.5 25.55
L -31.8 25.45
Q -31.95 25.55 -31.8 25.8 -31.55 26.5 -30.6 28.6
L -29.1 31.2
Q -29.05 31.4 -28.9 31.4 -28.8 31.4 -28.8 31.05 -29 29.65 -25.3 27.8 -21.55 26 -20.35 27 -20.1 27.25 -19.9 27.15
L -19.9 26.7 -21.25 23.85
Q -22.2 21.85 -22.6 21.3 -22.8 20.95 -22.95 21.05
M -27.55 9.7
Q -27.55 10.2 -28.2 10.7 -28.95 11.5 -30.7 12.15 -32.7 13.25 -34.2 13.75 -34.55 13.85 -34.65 13.65
L -35.3 11.7
Q -35.45 11.5 -35.3 11.15
L -34.75 10.25
Q -34.6 10.05 -34.75 9.9 -34.85 9.8 -35.1 9.9 -37.5 10.5 -39.6 10.25 -39.9 10.25 -39.9 10.35 -39.9 10.65 -39.6 10.7 -37.75 11.55 -36.9 13.05 -36.45 13.95 -35.85 15.9
L -34.3 20.05
Q -34.05 20.65 -34.05 21.05
L -34.2 21.5
Q -34.25 21.7 -34.05 21.85 -34.05 21.9 -33.85 21.85 -33.7 21.65 -32.6 21.05
L -31.25 20.4
Q -30.7 20.15 -31.35 19.95 -32.4 19.8 -33.3 17.1 -33.4 16.85 -33.05 16.65
L -29.35 15.65
Q -27.75 15.2 -26.65 15.2 -25.8 15.2 -25.4 15.45 -25.15 15.75 -25.05 15.65 -24.95 15.6 -25.05 15.2
L -25.95 12.3
Q -26.8 9.95 -27.1 9.6 -27.3 9.25 -27.45 9.25 -27.55 9.25 -27.55 9.7
M -39.15 -49.5
Q -39.7 -49.1 -39.9 -48.35 -40.15 -47.55 -39.7 -47 -39.25 -46.4 -38.7 -46.2 -37.9 -46.1 -37.45 -46.45 -36.9 -46.75 -36.65 -47.45 -36.45 -48.25 -36.75 -48.8 -37.1 -49.35 -37.8 -49.6 -38.5 -49.8 -39.15 -49.5
M -29.9 -45.9
Q -29.7 -46.55 -30.15 -47.25 -30.45 -47.75 -31.15 -48 -31.75 -48.15 -32.4 -47.8 -33.1 -47.4 -33.3 -46.55 -33.5 -45.8 -33.05 -45.2 -32.8 -44.8 -31.95 -44.55 -31.2 -44.3 -30.7 -44.65 -30.1 -45.1 -29.9 -45.9
M -42.3 -6.05
Q -41.45 -4.6 -40.95 -2
L -39.8 3.3
Q -39.8 3.7 -39.45 3.4 -38.6 2.2 -34.3 2.85 -30.6 3.35 -29.45 4.5 -29.35 4.75 -29.1 4.65 -29 4.65 -29 4.4 -29 3.9 -29.45 1.7
L -30.15 -1.2
Q -30.25 -1.45 -30.35 -1.45 -30.45 -1.45 -30.6 -1.2 -30.6 -0.8 -31.15 -0.55 -32 -0.1 -33.4 -0.2 -33.6 -0.2 -33.75 -0.55
L -34.2 -3.35
Q -34.25 -3.7 -34.05 -3.8 -32.8 -4.25 -31.7 -4.5 -31.4 -4.5 -31.25 -4.35 -30.7 -4.05 -30.8 -4.5
L -31.25 -7.4
Q -31.7 -10.05 -32.05 -10.8 -32.15 -11.2 -32.25 -11 -32.5 -10.9 -32.5 -10.55 -32.5 -10.15 -33.05 -9.2 -33.9 -7.8 -35.65 -6.5
L -38 -5.15
Q -39.2 -4.6 -39.45 -4.6 -39.65 -4.45 -40.15 -4.7
L -42.05 -6.5
Q -42.15 -6.7 -42.3 -6.5 -42.35 -6.4 -42.3 -6.05
M -38.35 -0.3
L -38.8 -1.45
Q -38.9 -1.8 -38.7 -2
L -35.75 -3
Q -35.25 -3.25 -35.2 -2.9
L -34.75 -0.65 -34.75 -0.3
Q -34.75 -0.2 -34.95 -0.2
L -37.9 0
Q -38.2 0 -38.35 -0.3
M -41.05 -22.05
Q -41.05 -22.35 -40.8 -22.6
L -40.15 -23.25
Q -39.7 -23.7 -40.35 -23.85 -42.7 -23.9 -44.75 -24.75 -45 -24.85 -45 -24.75 -45.1 -24.5 -44.85 -24.4 -43.3 -23.1 -42.85 -21.25 -42.75 -20.55 -42.75 -18.2
L -42.5 -13.8
Q -42.4 -13 -42.85 -12.35
L -42.85 -12.15
Q -42.7 -11.95 -42.5 -12 -42.45 -12.1 -41.15 -12.35
L -39.6 -12.6
Q -39.35 -12.7 -39.35 -12.8 -39.35 -12.9 -39.7 -13.05 -40.5 -13.5 -40.7 -16.4 -40.7 -16.75 -40.35 -16.75
L -36.45 -16.65
Q -33.3 -16.5 -32.7 -15.75 -32.4 -15.4 -32.25 -15.4 -32.15 -15.4 -32.15 -15.85
L -32.25 -18.9
Q -32.4 -21.5 -32.5 -21.8 -32.55 -22.25 -32.7 -22.25 -32.95 -22.25 -33.05 -21.8 -33.05 -21.35 -33.95 -21 -35 -20.55 -36.65 -20.25
L -40.5 -19.8
Q -40.8 -19.8 -40.8 -20.1
L -41.05 -22.05
M -42.5 -41.05
Q -42.85 -41.25 -42.85 -41.15 -42.95 -41.05 -42.75 -40.7 -41.5 -39.1 -41.6 -37.9
L -42.4 -34.85
Q -42.7 -32.35 -41.25 -30.45 -39.85 -28.6 -37.55 -28.35 -35 -27.95 -33.15 -29.35 -31.25 -30.7 -30.9 -33.3 -30.7 -34.8 -31.15 -36.45 -31.35 -37.3 -30.6 -38.35 -30.35 -38.65 -30.45 -38.8 -30.65 -38.9 -30.9 -38.7 -31.3 -38.45 -32.5 -38.45 -34.5 -38.35 -36.3 -38.55 -38.3 -38.75 -40.5 -39.9 -41.95 -40.6 -42.5 -41.05
M -39.9 -37.55
Q -39.15 -38.15 -38.45 -38 -37.3 -37.9 -37.45 -35.55 -37.45 -34.75 -37.8 -32.85 -37.8 -32.6 -38.25 -32.6 -39.05 -32.75 -39.9 -33.6 -41.15 -34.45 -41.05 -35.55 -40.85 -36.85 -39.9 -37.55
M -35.2 -37.2
Q -34.75 -37.4 -34.3 -37.35 -33.6 -37.2 -33.15 -36.75 -32.35 -36.05 -32.5 -34.95 -32.55 -33.4 -33.75 -32.85 -34.5 -32.4 -36.1 -32.4 -36.45 -32.4 -36.45 -32.7 -36.2 -36.3 -35.85 -36.75 -35.8 -36.95 -35.2 -37.2
M -29 -64.2
Q -29.1 -64.2 -29.8 -63.3 -30 -63 -30.15 -63.45 -30.15 -65.15 -32.05 -65.8 -33.5 -66.25 -34.65 -64.65 -35.15 -63.95 -36.3 -60.05 -37.35 -56.9 -37.65 -55.55 -37.65 -55.35 -37.55 -55.35 -37.45 -55.15 -37.35 -55.45
L -36.45 -55.9
Q -35.1 -56 -32.4 -55.1 -29.5 -54.2 -28.65 -53.1 -28.4 -52.7 -28.35 -51.95 -28.35 -51.75 -28.2 -51.75 -28 -51.75 -28 -51.95
L -26.4 -56.35
Q -25.9 -57.7 -25.65 -58.8 -25.05 -60.6 -25.05 -61.4 -25.05 -62.4 -25.5 -63.3 -26.1 -64.45 -27.1 -64.65 -28.25 -65.05 -29 -64.2
M -34.3 -62.1
Q -33.45 -62.75 -32.5 -62.4 -31.75 -62.1 -31.35 -61.5 -30.9 -60.75 -31.8 -58.7 -31.95 -58.5 -32.15 -58.5 -33.2 -58.8 -35.1 -59.6 -35.3 -59.7 -35.2 -60.05 -34.75 -61.7 -34.3 -62.1
M -30.7 -57.9
Q -31.05 -57.9 -30.9 -58.25 -30.25 -60.6 -30 -60.85 -29.2 -61.65 -28 -61.2 -27 -60.75 -26.75 -60.05 -26.65 -58.85 -27.2 -57.35 -27.35 -57 -27.55 -57
L -30.7 -57.9
M -17.1 -75.8
Q -17.6 -75.7 -18.75 -76.15 -20.15 -76.6 -22.15 -77.7 -23.8 -78.5 -25.65 -80.3 -26.65 -81.45 -27.1 -82.2 -27.3 -82.55 -27.3 -82.45 -27.45 -82.3 -27.45 -82 -26.8 -79.85 -27.45 -78.95 -27.7 -78.35 -29.25 -76.35 -30.35 -74.25 -29.7 -71.85 -29.1 -69.65 -27 -68.5 -24.8 -67.25 -22.6 -67.8 -20.35 -68.4 -19.1 -70.75 -18.35 -72.15 -18.2 -73.8 -18.15 -74.65 -16.95 -75.35 -16.5 -75.55 -16.65 -75.7 -16.65 -75.8 -17.1 -75.8
M -27.75 -76.6
Q -27.25 -77.9 -25.95 -78.3 -24.95 -78.5 -24.3 -78.15 -23.15 -77.6 -24.15 -75.15 -24.7 -74 -25.65 -72.55 -25.7 -72.3 -26.1 -72.55 -26.85 -72.85 -27.55 -74.25 -28.3 -75.6 -27.75 -76.6
M -21.6 -76.25
Q -20.95 -76.25 -20.7 -76.05 -20.05 -75.6 -19.65 -74.9 -19.2 -74 -19.65 -72.9 -20.5 -71.3 -21.8 -71.1 -22.8 -70.95 -24.5 -71.65 -24.85 -71.7 -24.75 -72.1
L -23.7 -74
Q -22.8 -75.85 -22.5 -75.9 -22.15 -76.25 -21.6 -76.25
M 53.75 85.85
Q 53.25 85.25 52.65 85.2 51.9 85.05 51.3 85.4 50.75 85.75 50.6 86.55 50.5 87.35 50.85 87.75 51.25 88.3 52.05 88.45 52.7 88.6 53.3 88.1 53.85 87.85 54 87.1 54.1 86.4 53.75 85.85
M 53.5 78.3
Q 52.8 78.2 52.3 78.65
L 52.05 78.75
Q 51.6 79.15 51.6 79.65 51.4 80.45 51.85 81 52.25 81.55 53.2 81.7 54 81.8 54.55 81.35 54.95 80.95 55.1 80.1 55.2 79.45 54.75 79
L 54.55 78.75
Q 54.25 78.45 53.5 78.3
M 38.8 74.7
Q 36.95 74.25 36.1 74.6 34.9 75 34.05 76.05 33.15 77.2 32.7 78.75 32.25 80.4 32.5 81.6 32.55 82.65 33.4 83.5 34.05 84.15 35.3 84.6
L 38.2 85.4
Q 39.2 85.6 42.85 86.55 43.1 86.65 43.15 86.4
L 43.05 86.1
Q 42.15 85.4 43.05 81.35 43.5 79.45 43.75 78.75 43.9 78.4 44.4 77.65 44.65 77.15 45.2 76.95 45.75 76.7 45.3 76.5 44.9 76.35 41.25 75.4
L 38.8 74.7
M 38.8 76.3
Q 39.2 76.1 40.15 76.4 40.5 76.4 40.5 76.75
L 40.45 76.75
Q 40.55 76.95 40.15 78.75
L 39.8 80.55
Q 39.15 82.8 38.45 84.15 38.3 84.4 38 84.4
L 36.4 83.85
Q 35.5 82.75 36.4 79.8
L 36.75 78.75
Q 37.55 76.6 38.8 76.3
M 12.15 62.45
Q 11.4 62.6 11 63.15 10.55 63.65 10.65 64.4 10.8 65.15 11.45 65.6 12.1 66.2 12.9 65.95 13.4 65.9 13.9 65.15 14.4 64.65 14.25 64.05 14.2 63.5 13.5 62.8 12.95 62.45 12.15 62.45
M 9.4 68.55
Q 8.75 67.95 8.05 68.1 7.4 68.1 6.95 68.65 6.5 69.3 6.6 70 6.75 70.75 7.3 71.1 8.05 71.6 8.65 71.45 9.25 71.4 9.75 70.8 10.1 70.25 10 69.55 10 68.85 9.4 68.55
M 1.65 53.45
Q 0.15 52.65 0 51.65 0 51.25 -0.2 51.3
L -0.65 51.75
Q -1.5 52.85 -2.65 53.9 -3.1 54.2 -3.1 54.35 -3.1 54.5 -2.35 54.25 -1.3 54.05 -0.2 54.25 1.1 54.55 1.8 55.35 2.5 56.25 2.1 57.6 1.8 59 0.3 60.1 -1.25 61.35 -2.65 61.55 -4.25 61.7 -4.9 60.75 -5.55 60 -5.8 58.65 -6.05 57.5 -6.05 56.95 -6.05 56.3 -6.4 56.5 -6.8 56.7 -8.3 57.2
L -10.3 57.75
Q -10.9 57.75 -10.75 57.95 -10.75 58.05 -10.3 58.2 -8.05 58.45 -7.3 59.45
L -6.7 60.45
Q -6.45 61.2 -5.6 62.25 -4.1 64.05 -1.75 64.35 0.8 64.8 2.8 63.15 5.8 60.75 5.05 57.5 4.2 54.9 1.65 53.45
M 127 61
Q 126.8 60.9 126.55 61.1
L 123.95 62.7
Q 121.95 64.05 121.6 64.4 121.25 64.65 121.35 64.85 121.35 64.95 121.8 64.85 122.15 64.7 122.95 65.15 123.75 65.75 124.95 67.2
L 127.3 70.25
Q 127.55 70.6 127.2 70.8
L 125.65 71.8
Q 125.5 71.9 125.05 71.9
L 124.05 71.7
Q 123.45 71.55 123.85 72.15 124.85 74.4 125.2 76.4 125.2 76.7 125.4 76.65 125.55 76.65 125.55 76.3 125.85 74.25 127.2 73.05 128.15 72.3 129.8 71.45
L 133.5 68.9
Q 134.05 68.55 134.85 68.55 135.1 68.55 135.2 68.3 135.2 68.15 135 68.1 135 67.95 133.05 65.85 132.6 65.4 132.75 66.2 132.75 67.25 130.35 68.65 130.05 68.85 129.9 68.55
L 128 65.15
Q 127.25 63.7 127 62.7 126.75 61.8 126.9 61.45 127.1 61.2 127 61
M 165.55 31.65
Q 164.6 31.75 163.55 31.65
L 154.65 30.95 154.45 30.95
Q 153.9 30.9 154.1 31.4
L 154.65 32.65
Q 156.35 36.2 156.7 36.9 159 42 158.8 43.55 158.75 43.9 158.8 43.9
L 159.15 43.8 160.85 41.4
Q 161.8 39.95 162.2 39.05 162.5 38.65 162 38.95 161.1 39.4 160.05 38.25 159.15 37.35 157.8 35.45
L 156.7 33.65
Q 156.3 33.1 156.9 33.2 159.2 33.55 162.55 34.55 163.4 34.8 163.65 35.35
L 163.8 36.15
Q 163.8 36.35 163.9 36.35 164 36.55 164.1 36.25
L 165.8 33.75
Q 166.65 32.55 167.15 31.5 167.3 31.3 167.15 31.2 166.95 31.2 166.8 31.3 166.6 31.5 165.55 31.65
M 170.75 -9.65
Q 170.5 -9.9 170.3 -10.45 170.25 -10.75 170.1 -10.75 170 -10.75 169.85 -10.45
L 168.6 -5.05
Q 168.6 -4.8 168.75 -4.8 169 -4.7 169.05 -5.05 169.45 -5.5 170.65 -5.5 171.95 -5.6 173.9 -5.15
L 177.15 -4.25
Q 177.4 -4.25 177.4 -4
L 177.15 -3.9 171.45 -2.35
Q 171.3 -2.2 171.3 -2 171.25 -1.85 171.3 -1.65
L 175.8 2.4
Q 176 2.6 175.95 2.6 175.95 2.75 175.7 2.75
L 172.35 1.95
Q 170.5 1.55 169.4 1.05 168.2 0.5 168.05 -0.1
L 167.85 -0.4
Q 167.75 -0.5 167.6 -0.2 167.4 0.3 166.95 2.6 166.35 4.85 166.35 5.45 166.35 5.75 166.5 5.75
L 166.8 5.55
Q 167.25 5.1 167.85 5.1 168.8 4.95 171.75 5.45 174.6 5.95 175.6 6.45 176 6.7 176.25 7.25 176.35 7.5 176.5 7.1
L 177.6 2.3
Q 177.75 1.85 177.5 1.6
L 174.35 -1.1 174.25 -1.3 174.45 -1.45 178.3 -2.35
Q 178.6 -2.35 178.75 -2.55
L 179.4 -5.15
Q 179.85 -6.95 179.85 -7.75
L 179.75 -8.05
Q 179.6 -8.05 179.4 -7.85 179.2 -7.4 177.95 -7.5 176.65 -7.65 174.35 -8.3 171.65 -8.95 170.75 -9.65
M 181.1 -19.45
Q 181.2 -22 179.95 -23.35 178.55 -25.25 175.25 -25.4 172.05 -25.45 170.65 -23.15 169.75 -21.65 169.6 -19.65 169.6 -17.9 170.75 -16.05 172.35 -13.65 175.45 -13.6 178.55 -13.45 180.1 -15.6 181.1 -17.15 181.1 -19.45
M 175.35 -21.25
Q 177.4 -21.25 178.85 -20.45 179.95 -19.85 179.95 -19.45 179.95 -19 178.85 -18.4 177.25 -17.75 175.35 -17.75 173.3 -17.8 171.85 -18.55 170.85 -19.1 170.85 -19.55 170.85 -20.1 171.85 -20.55 173.15 -21.35 175.35 -21.25
M 170.3 -47
Q 170.6 -47.6 170.4 -48.45 169.95 -50.05 168.25 -49.6 167.6 -49.45 167.25 -48.9 166.95 -48.2 167.15 -47.45 167.4 -46.75 168.05 -46.45 168.5 -46.1 169.3 -46.2 169.85 -46.4 170.3 -47
M 175 -51.5
Q 174.35 -51.3 174 -50.7 173.65 -50.1 173.8 -49.35 174 -48.7 174.55 -48.25 175.1 -47.9 175.9 -48.15 176.6 -48.2 176.95 -48.9 177.25 -49.55 177.05 -50.25 176.8 -50.95 176.25 -51.3 175.5 -51.65 175 -51.5
M 158.5 -70.95
Q 158.35 -70.85 158.5 -70.65 158.6 -69.95 159.4 -68.15
L 160.6 -65.45
Q 160.75 -65.25 160.85 -65.35 160.95 -65.35 160.95 -65.7 160.95 -66.9 164.8 -68.5
L 168.05 -69.85
Q 168.25 -69.85 168.25 -69.75 168.35 -69.65 168.15 -69.5
L 164.45 -64.9
Q 164.3 -64.75 164.45 -64.55 164.5 -64.35 164.65 -64.35 164.85 -64.3 170.75 -63.65 171.1 -63.55 171.1 -63.45
L 170.85 -63.3 167.7 -61.95
Q 166 -61.15 164.65 -60.95 163.3 -60.75 163 -61.05
L 162.65 -61.2
Q 162.4 -61.2 162.55 -60.95
L 163.65 -58.15
Q 164.55 -55.95 164.9 -55.55 165 -55.25 165.1 -55.45 165.25 -55.45 165.25 -55.8 165.35 -56.3 165.8 -56.8 166.85 -57.6 169.15 -58.7 172.95 -60.65 173.9 -59.95 174.25 -59.7 174.1 -60.15 173.8 -61.3 173.1 -62.65
L 172.1 -64.8
Q 171.9 -65.1 171.65 -65.1
L 167.6 -65.55
Q 167.35 -65.55 167.35 -65.7 167.3 -65.7 167.35 -65.9
L 170.05 -68.85
Q 170.3 -69.05 170.2 -69.3 170.2 -69.8 169.3 -71.85 168.7 -73.2 168.15 -74.25 167.8 -74.75 167.8 -74 167.75 -73.6 166.7 -72.9 165.85 -72.3 163.3 -71.4 160.7 -70.4 159.6 -70.4
L 158.7 -70.85
Q 158.65 -70.95 158.5 -70.95
M 158.15 -89.75
Q 158 -89.65 158.15 -89.4 158.15 -89.05 157.8 -88.05 157.55 -87.05 157.15 -86.25 155.7 -83.35 152.85 -78.05 152.55 -77.65 153.1 -77.7
L 159.25 -77.85
Q 162.75 -77.95 164.45 -77.6 165.75 -77.35 166.15 -77.15 166.45 -76.9 166.45 -77.05 166.65 -77.15 166.45 -77.4 165.75 -78.85 165 -79.95
L 163.45 -82
Q 163.15 -82.25 163.2 -81.9 163.2 -81 161.85 -80.4 160.35 -79.8 158.35 -79.4
L 156.25 -79.05
Q 155.7 -79.05 155.9 -79.5 157.1 -81.35 159.4 -84.15 159.9 -84.8 160.6 -84.8 160.9 -84.95 161.3 -84.7 161.5 -84.55 161.65 -84.7
L 161.5 -84.9
Q 161.05 -85.9 159.95 -87.4 158.9 -88.85 158.35 -89.55 158.3 -89.75 158.15 -89.75
M 48 -132.4
Q 47.65 -132.2 47.65 -132.15 47.65 -132.05 48 -131.95 49.5 -131.8 50.15 -127.8 50.7 -124.9 50.25 -123.6 50.2 -123.1 49.7 -122.7 49.35 -122.5 49.45 -122.4 49.45 -122.25 49.8 -122.25 50.4 -122.25 52.95 -122.85 55.15 -123.15 55.75 -123.4 56.1 -123.45 56.1 -123.6 56 -123.85 55.65 -123.85 55.15 -123.9 54.75 -124.5 54.05 -125.5 53.5 -128.45 53.1 -130.9 53.4 -132.05 53.6 -132.8 53.95 -133.05 54.2 -133.2 54.2 -133.3 54.2 -133.55 53.85 -133.4
L 50.95 -133.05
Q 49.6 -132.8 48 -132.4
M 68.7 -135
Q 67.8 -135 66.9 -134.75
L 66.15 -134.65 65.8 -134.55
Q 65.8 -134.25 66.15 -134.2 67.15 -133.8 67.35 -131.6 67.55 -130.05 67.5 -129.9 67.15 -129.65 65.25 -129.9 64 -130.1 63.55 -130.35 63.2 -130.5 63.1 -130.8 62.95 -131.05 62.85 -131.05
L 62.65 -130.7
Q 62.4 -129.95 62.4 -128.7 62.4 -127.05 62.55 -126.55 62.6 -126.2 62.75 -126.2 62.9 -126.2 63.1 -126.55 63.45 -127.15 65.35 -127.65 67.1 -128.25 67.6 -128
L 67.35 -126
Q 67.1 -124.75 66.8 -124.2 66.55 -123.7 66.15 -123.5 65.9 -123.4 65.9 -123.3 65.9 -123.15 66.15 -123.15 66.9 -122.85 68.7 -122.85 70.2 -122.85 71.2 -123.05 71.55 -123.05 71.55 -123.15 71.55 -123.4 71.1 -123.4 70.4 -123.65 69.95 -126 69.65 -128.05 69.75 -128.1
L 71.85 -127.9
Q 72.7 -127.7 73.45 -127.2
L 74.25 -126.55
Q 74.5 -125.95 74.55 -126.55 74.9 -127.25 74.9 -128.8
L 74.8 -130.95 74.55 -131.15
Q 74.4 -131.15 74.35 -130.95 73.9 -130.3 71.85 -130.05
L 69.75 -129.8 70.05 -131.85
Q 70.45 -134 71.2 -134.3 71.85 -134.5 71.2 -134.65 70.4 -135 68.7 -135
M 8.4 -117.65
Q 8.4 -118 8.3 -118 8.05 -118 8.05 -117.65 7.75 -115.35 6.7 -114.85 5.1 -114.15 4 -113.4 2 -111.95 1.65 -109.55 1.2 -107.2 2.55 -105.3 4.15 -103.25 6.25 -102.8 8.55 -102.25 10.75 -103.95 12 -104.8 12.9 -106.2 13.35 -106.95 14.6 -107.1 15.05 -107.1 15.05 -107.3 15.05 -107.4 14.7 -107.55 14.5 -107.6 13.35 -108.65 12.05 -109.85 10.9 -111.45 9 -114 8.4 -117.65
M 7.75 -113.6
Q 8.8 -113.35 9.3 -112.8 10 -111.8 7.95 -110
L 5.6 -108.3
Q 5.35 -108.2 5.15 -108.55 4.6 -109.15 4.6 -110.7 4.45 -112.25 5.35 -112.95 6.45 -113.85 7.75 -113.6
M 8.4 -105.4
Q 7.5 -105.65 6.15 -106.95 5.95 -107.3 6.25 -107.55
L 7.95 -108.9
Q 9.5 -110 9.85 -110.1 10.35 -110.1 10.75 -109.9 11.3 -109.7 11.55 -109.35 12 -108.65 12 -107.85 12 -106.85 11.1 -106.05 9.75 -104.95 8.4 -105.4
M 33.25 -128.1
Q 31.85 -126.65 32.35 -125.1 32.95 -123.65 34.4 -123.05 35.85 -122.4 38 -123.15 39.05 -123.5 40.35 -123.5 41.75 -123.5 41.95 -122.85 42.15 -122.3 41.8 -121.7 41.35 -121.05 40 -120.6 38.05 -119.9 35.75 -120.7 34.3 -121.15 33.5 -121.7 33.05 -122.05 32.95 -121.95 32.7 -121.8 33.05 -121.35 33.6 -120.8 34.4 -119.25
L 35.05 -117.55
Q 35.05 -117.2 35.3 -117.2 35.5 -117.35 35.5 -117.65 35.5 -117.85 35.75 -118.2
L 36.65 -118.8
Q 37.35 -118.9 38.35 -118.9 39.35 -118.75 40.6 -119.1 42.85 -119.95 43.95 -121.6 44.85 -123.05 44.4 -124.5 43.5 -127.1 39.8 -126.65 37.85 -126.15 37 -126.1 35.15 -125.7 34.85 -126.55 34.6 -127.7 36.55 -128.45 38.55 -129.25 41.95 -128.8
L 42.25 -128.8
Q 42.4 -128.8 42.4 -129 42.25 -132.05 42.4 -132.3 42.4 -132.5 42.25 -132.6 42.1 -132.6 42.05 -132.4 41.45 -131.35 40.35 -130.7 39.85 -130.4 38.45 -130.25 36.8 -130.05 36.1 -129.8 34.45 -129.3 33.25 -128.1
M 86.6 -130.5
Q 86.8 -131.6 88.95 -131.15 91 -130.85 93.7 -128.55 94 -128.3 94.25 -128.55
L 95.95 -131.4
Q 96 -131.6 95.95 -131.6 95.95 -131.75 95.7 -131.6 94.5 -131.05 93.35 -131.05 92.9 -131.05 91.55 -131.6 90.25 -132.3 89.2 -132.6 87.5 -132.95 86.05 -132.6 84 -132.15 83.7 -130.5 83.35 -129 84.25 -127.8 85.25 -126.3 87.4 -125.85 88.5 -125.55 89.55 -124.95 90.8 -124.15 90.65 -123.5 90.2 -122.15 87.75 -122.6 85.75 -123.2 84.15 -124.85 83.1 -126.2 82.8 -127.1 82.65 -127.55 82.45 -127.55 82.2 -127.55 82.35 -127 82.4 -126.2 82.2 -124.5
L 81.9 -122.7
Q 81.75 -122.4 82 -122.25 82.2 -122.25 82.35 -122.5 82.4 -122.7 82.9 -122.85 83.45 -122.95 83.9 -122.85 84.5 -122.7 85.35 -122.05 86.25 -121.4 87.4 -121.15 89.65 -120.55 91.55 -121.35 93.2 -122.15 93.6 -123.6 94.15 -126.3 90.75 -127.9 89.05 -128.4 88.05 -128.9 86.35 -129.6 86.6 -130.5
M 117.1 -123.85
Q 115.15 -124.8 113.05 -124.3 110.6 -123.85 109.45 -121.6 108.1 -119.15 108.65 -117.1 109.35 -114.85 112.15 -113.35 114.55 -112.05 116.4 -112.7 117.9 -113.3 118.8 -114.85 119.45 -116 118.9 -117.3 118.55 -118.3 117.45 -118.9 116.65 -119.35 115.75 -119.1 114.7 -118.85 114.4 -118.1 113.8 -117.15 114.05 -116.4 114.2 -115.75 114.5 -116.3
L 115.05 -116.55
Q 115.55 -116.55 115.85 -116.4 116.85 -115.9 116.4 -114.95 115.95 -114 114.85 -113.95 113.85 -113.8 112.8 -114.4 111.8 -114.95 111.8 -116.3 111.8 -117.6 112.8 -119.7 113.7 -121.45 115.05 -122.15 116.2 -122.85 117 -122.4 118.75 -121.5 119.8 -119.45 119.85 -119.25 120 -119.25 120.15 -119.25 120.35 -119.45
L 122.05 -121.15
Q 122.5 -121.65 121.8 -121.5 120.6 -121.05 119.55 -121.6
L 118.65 -122.5
Q 118.15 -123.2 117.1 -123.85
M 106.5 -127.45
Q 105.9 -127.8 103.7 -128.55 102.1 -129.1 100.9 -129.35 100.55 -129.5 100.55 -129.25 100.45 -129.15 100.65 -129 101.9 -128.25 100.55 -124.3 99.6 -121.65 98.65 -120.7 98.2 -120.2 97.65 -120.15 97.3 -120.15 97.2 -119.9 97.2 -119.75 97.5 -119.7 98.5 -119.2 100.45 -118.55 102.2 -117.95 103.25 -117.75 103.6 -117.7 103.6 -117.75 103.7 -118.05 103.35 -118.1 102.9 -118.55 102.9 -119.25 102.7 -120.35 103.7 -123.3 104.55 -125.6 105.4 -126.45 105.95 -127 106.4 -127 106.75 -127.1 106.75 -127.2 106.75 -127.3 106.5 -127.45 Z"/>
</g>
</defs>

<g transform="matrix( 0.987060546875, 0, 0, 0.9971160888671875, 44.45,134.6) ">
<use xlink:href="#Layer0_0_MEMBER_0_FILL"/>
</g>
</svg>
