
<svg xmlns="http://www.w3.org/2000/svg" version="1.1" xmlns:xlink="http://www.w3.org/1999/xlink" preserveAspectRatio="none" x="0px" y="0px" width="800px" height="600px" viewBox="0 0 800 600">
<defs>
<g id="Layer0_0_FILL">
<path fill="#000000" stroke="none" d="
M 97.5 89.35
Q 96.8251953125 88.705859375 96.55 88.25
L 95.7 88.25
Q 95.6412109375 88.347265625 95.55 88.45
L 94.75 89.45
Q 94.65 89.55 94.7 89.55 94.7 89.6 94.85 89.55 95.35 89.4 96.55 90.35
L 97.85 91.35
Q 97.95 91.45 97.9 91.5 97.9 91.55 97.75 91.55
L 96 90.95
Q 95.25 90.7 94.05 90.45 93.9 90.45 93.75 90.6 93.35 91 93 91.35
L 92.5 91.95
Q 92.4 92.1 92.45 92.1 92.5 92.15 92.7 92.15 92.85 92.15 93.3 92.5 93.8 92.85 94.4 93.4 95.65 94.6 95.5 95.2 95.45 95.3 95.5 95.35 95.55 95.35 95.65 95.25 96 95 96.45 94.5 97.1 93.85 97.3 93.55 97.4 93.4 97.3 93.4 97.25 93.35 97.15 93.4 96.7 93.6 95.35 92.55
L 94.05 91.5
Q 93.95 91.45 94 91.35 94.05 91.3 94.2 91.35 94.3 91.35 94.85 91.45 95.55 91.6 96 91.75 96.45 91.95 97.2 92.2 97.95 92.45 98.05 92.45 98.2 92.5 98.35 92.35
L 99 91.6
Q 99.3 91.3 99.6 90.85 99.7 90.75 99.65 90.7 99.6 90.65 99.45 90.7 99.2 90.75 98.75 90.45 98.4 90.2 97.5 89.35
M 98.75 83.75
L 98.75 84.5
Q 99.0734375 85.212890625 99.65 86.4 100.7 88.65 100.6 89.35 100.55 89.5 100.6 89.5 100.65 89.5 100.75 89.45 101.3 88.7 101.5 88.4 101.9 87.8 102.1 87.35 102.2 87.2 102 87.3 101.6 87.5 101.15 87 100.7 86.55 100.15 85.75 99.75 85.15 99.65 84.95 99.5 84.7 99.75 84.75 100.8 84.9 102.25 85.35 102.6 85.45 102.75 85.7 102.8 85.9 102.8 86.05 102.8 86.15 102.85 86.15 102.9 86.2 102.95 86.1 103.1 85.9 103.7 85 104.05 84.45 104.3 84 104.35 83.9 104.3 83.85 104.25 83.85 104.15 83.9 104.05 84 103.6 84.05 103.15 84.1 102.7 84.05 99.2919921875 83.7912109375 98.75 83.75
M 33.1 100.5
Q 32.9 100.8 32.95 101.1 33 101.4 33.25 101.6 33.55 101.8 33.85 101.75 34.15 101.7 34.35 101.45 34.5 101.2 34.45 100.9 34.45 100.6 34.2 100.45 33.9 100.2 33.6 100.25 33.3 100.25 33.1 100.5
M 42.75 104.3
Q 43.2 103.2 42.9 102.3 42.6 101.35 41.5 100.85 40.85 100.55 40.15 100.5 39.75 100.5 39.45 100.05 39.3 99.85 39.25 99.9 39.15 99.9 39.2 100.1 39.25 100.25 39.1 100.85 38.9 101.55 38.55 102.4 38.2 103.25 37.45 104.05 37.05 104.5 36.7 104.75 36.55 104.85 36.6 104.9 36.65 104.95 36.8 104.85 37.7 104.55 38.15 104.8 38.4 104.95 39.35 105.5 40.35 105.95 41.35 105.6 42.35 105.25 42.75 104.3
M 41.45 102.05
Q 41.55 102.5 41.3 103.25 41.25 103.4 41.1 103.35 39.45 102.7 39.3 102.55 39.2 102.35 39.15 102.1 39.15 101.85 39.25 101.7 39.4 101.4 39.7 101.2 40.1 101 40.6 101.2 41.3 101.45 41.45 102.05
M 40.9 103.8
Q 41 103.85 40.95 104 40.8 104.35 40.25 104.7 39.65 105.1 39.15 104.9 38.55 104.65 38.4 104.1 38.25 103.7 38.4 103.35 38.6 102.85 39.7 103.25 40.2 103.4 40.9 103.8
M 47.25 103.2
Q 46.4 103 46.05 103.15 45.55 103.3 45.15 103.8 44.75 104.3 44.55 105 44.35 105.75 44.45 106.25 44.5 106.75 44.85 107.1 45.15 107.4 45.7 107.6 46.05 107.7 47 107.95 47.55 108.05 49.05 108.45 49.15 108.5 49.2 108.4 49.2 108.35 49.15 108.25 48.75 107.95 49.15 106.15 49.4 104.95 49.75 104.5 49.85 104.3 50.1 104.2 50.35 104.1 50.15 104 49.9 103.9 48.35 103.5 47.7 103.3 47.25 103.2
M 47.85 103.95
Q 48 103.95 48 104.1 48.05 104.3 47.7 105.8 47.4 106.8 47.1 107.4 47.05 107.5 46.9 107.5 46.8 107.5 46.55 107.4 46.3 107.3 46.2 107.25 45.8 106.75 46.2 105.45 46.6 104.05 47.25 103.9 47.45 103.8 47.85 103.95
M 53.9 108.15
Q 53.7 107.9 53.4 107.85 53.05 107.8 52.8 107.95 52.55 108.1 52.5 108.45 52.45 108.8 52.6 109 52.8 109.25 53.15 109.3 53.45 109.35 53.7 109.15 53.95 109 54 108.7 54.05 108.4 53.9 108.15
M 54.35 105.1
Q 54.2 104.85 53.8 104.8 53.5 104.75 53.25 104.95 52.95 105.1 52.95 105.4 52.85 105.75 53.05 106 53.25 106.25 53.65 106.3 54 106.35 54.25 106.15 54.45 105.95 54.5 105.6 54.55 105.3 54.35 105.1
M 62.65 104.95
Q 62.65 104.8 62.55 104.8 62.45 104.8 62.4 104.95 62.4 105.05 62.25 105.15 62 105.25 61.8 105.25 61.5 105.25 61.05 105.05 60.6 104.85 60.1 104.85 59 104.85 58.35 105.4 57.7 105.85 57.7 106.55 57.7 107.75 59.3 108.1 59.65 108.2 60.6 108.25 61.4 108.4 61.4 108.8 61.35 109.3 60.45 109.35 59.85 109.4 58.95 109.05 58.5 108.9 58.1 108.7
L 58 108.7
Q 57.95 108.7 57.9 108.75
L 57.45 110.15
Q 57.4 110.2 57.45 110.25 57.5 110.3 57.6 110.2 57.9 109.9 58.55 109.75 58.75 109.7 59.4 109.8 60.1 109.95 60.45 109.95 61.2 109.95 61.85 109.65 62.65 109.25 62.65 108.55 62.65 107.85 62.15 107.4 61.55 106.9 60.6 106.9 60.05 106.9 59.55 106.7 58.95 106.5 58.95 106.2 58.95 105.95 59.2 105.75 59.5 105.55 60.1 105.55 61 105.55 61.9 106.15 62.5 106.6 62.7 106.95 62.8 107.15 62.9 107.15 63 107.1 62.9 106.85 62.75 106.5 62.7 105.75 62.65 105.15 62.65 104.95
M 67.9 104.75
Q 67.85 104.7 67.7 104.7 67.45 104.7 66.3 104.8 65.35 104.9 65.05 104.95 64.9 105 64.9 105.1 64.9 105.15 65.05 105.15 65.3 105.25 65.45 105.5 65.75 106 65.85 107.3 65.95 108.35 65.75 108.9 65.65 109.25 65.45 109.3 65.35 109.35 65.35 109.45 65.35 109.5 65.5 109.5 66 109.5 66.85 109.4 67.6 109.35 68.15 109.25 68.25 109.2 68.25 109.15 68.25 109.05 68.15 109.05 67.5 108.9 67.35 107.1 67.2 105.85 67.45 105.3 67.55 105.05 67.75 104.9 67.9 104.8 67.9 104.75
M 73.35 103.6
Q 73.5 103.45 73.45 103.4 73.45 103.35 73.3 103.4 72.4 103.6 71.9 103.75 70.85 104.05 70.7 104.1 70.55 104.2 70.55 104.25 70.55 104.3 70.75 104.35 70.95 104.35 71.15 104.65 71.45 105.05 71.75 105.75
L 72.3 107.4
Q 72.35 107.55 72.25 107.6
L 71.4 107.8
Q 71.3 107.85 71.1 107.8
L 70.75 107.55
Q 70.55 107.4 70.6 107.7 70.75 108.8 70.6 109.7 70.55 109.85 70.65 109.8 70.7 109.8 70.75 109.7 71.2 108.9 71.9 108.55 72.35 108.4 73.2 108.2
L 75.1 107.65
Q 75.45 107.55 75.75 107.65 75.85 107.7 75.9 107.65 75.95 107.6 75.9 107.5 75.85 107.45 75.6 106.95 75.4 106.4 75.35 106.3 75.25 106.05 75.15 106.4 75.05 106.8 73.85 107.15 73.7 107.15 73.65 107
L 73.3 105.3
Q 73.05 103.9 73.35 103.6
M 78.7 101.9
Q 78.65 101.75 78.7 101.65 78.8 101.4 78.6 101.5 77.9 101.75 77.4 102 76.25 102.5 76 102.7 75.9 102.8 75.95 102.85 76 102.9 76.15 102.85 76.35 102.8 76.8 102.95 77.45 103.2 78.2 103.8 78.65 104.15 79.1 104.65 79.45 105.1 79.5 105.2 79.55 105.35 79.5 105.5 79.45 105.6 78.9 106.55 78.85 106.6 78.95 106.65 79 106.7 79.1 106.6 79.7 106.1 80.7 105.6 81.2 105.35 82.95 104.55 83.1 104.45 82.9 104.35 82.25 104.1 82.1 102.25 82 100.6 82.35 99.95 82.45 99.7 82.2 99.8
L 81.15 100.25
Q 80.2 100.65 79.95 100.85 79.85 100.9 79.85 100.95 79.9 101.05 79.95 101 80.1 101 80.35 101.2 80.6 101.5 80.7 102.1 80.75 102.25 80.6 102.3
L 79.45 102.85
Q 79.3 102.9 79.2 102.8 78.8 102.15 78.7 101.9
M 79.75 103.25
Q 80.6 102.85 80.7 102.8 80.8 102.7 80.85 102.75
L 80.9 102.85 81.3 104.05
Q 81.3 104.2 81.2 104.25
L 80.75 104.6
Q 80.6 104.7 80.5 104.6 79.8 103.55 79.75 103.45 79.65 103.3 79.75 103.25
M 34.9 98.05
Q 34.7 98.3 34.75 98.6 34.8 98.95 35.1 99.15 35.4 99.4 35.75 99.3 36 99.25 36.2 98.95 36.4 98.75 36.35 98.45 36.3 98.15 36 97.9 35.75 97.75 35.4 97.75 35.1 97.8 34.9 98.05
M 28.8 93.95
Q 28.6 94.1 28.6 94.15 28.6 94.2 28.95 94.1 29.4 94 29.9 94.1 30.5 94.25 30.8 94.6 31.1 95 30.95 95.6 30.8 96.2 30.15 96.7 29.45 97.25 28.8 97.35 28.1 97.4 27.8 97 27.5 96.65 27.4 96.05 27.3 95.6 27.3 95.3 27.3 95 27.15 95.1 26.8 95.25 26.3 95.4 25.7 95.6 25.4 95.65 25.15 95.65 25.2 95.75 25.2 95.8 25.4 95.85 26.4 95.95 26.75 96.4 26.85 96.55 27 96.85 27.1 97.15 27.5 97.65 28.15 98.45 29.2 98.6 30.35 98.8 31.25 98.05 32.6 97 32.25 95.55 31.9 94.4 30.75 93.75 30.1 93.4 30 92.95 30 92.75 29.9 92.8 29.85 92.8 29.7 93 29.4 93.4 28.8 93.95
M 25.7 89.05
Q 25.8 89.3 25.7 89.55 25.5 90.1 24.55 91 23.75 91.7 23.2 91.9 22.85 92 22.7 91.9 22.6 91.85 22.55 91.9 22.5 91.95 22.6 92.05 22.8 92.35 23.45 93.05 23.85 93.5 24.4 94 24.5 94.05 24.55 94 24.6 94 24.55 93.85 24.3 93.3 25.6 92.05 26.5 91.15 27.1 91 27.35 90.9 27.6 91 27.75 91.05 27.75 91 27.8 90.95 27.75 90.85
L 26.8 89.8
Q 26.1 89.1 25.85 88.9 25.75 88.8 25.7 88.85 25.65 88.9 25.7 89.05
M 17.95 85.5
Q 18.3 86.15 18.6 86.6 19.1 87.35 19.3 87.55 19.45 87.7 19.45 87.45 19.4 87.3 19.5 87.15 19.65 86.95 20 86.8 20.6 86.55 21.55 86.35 22.2 86.25 22.5 86.2 22.75 86.2 22.65 86.35 22.45 86.7 21.9 87.4 21.4 88.1 21.15 88.45 20.7 88.95 20.25 88.7 20.05 88.6 20.15 88.8 20.35 89.15 20.85 89.9 21.25 90.45 21.6 90.85 21.65 90.95 21.7 90.9 21.75 90.9 21.7 90.75 21.65 90.5 22.1 89.35 23.95 85.85 24 85.75 24.1 85.55 23.85 85.55 23.05 85.55 21.15 85.65 18.6 85.75 18.05 85.35 17.95 85.3 17.9 85.35 17.9 85.4 17.95 85.5
M 19.75 79.55
Q 19.75 79.8 19.6 80.05 19.25 80.45 18.05 81.05 17.1 81.5 16.5 81.5 16.15 81.5 16 81.35 15.9 81.3 15.85 81.3 15.8 81.35 15.85 81.45 16 81.85 16.4 82.7 16.5 82.85 17.05 83.85 17.1 83.95 17.15 83.95 17.2 83.95 17.2 83.8 17.1 83.15 18.75 82.35 20.4 81.55 20.95 82 21.05 82.1 21.15 82.05 21.15 82 21.15 81.85 21.05 81.7 20.55 80.6 20.1 79.7 19.95 79.45 19.85 79.3 19.8 79.35 19.75 79.4 19.75 79.55
M 18.85 76.95
Q 18.9 76.9 18.85 76.75 18.6 75.9 18.45 75.45 18.05 74.4 17.95 74.25 17.85 74.1 17.8 74.1 17.75 74.1 17.75 74.3 17.75 74.5 17.45 74.75 17.1 75.1 16.35 75.4 15.3 75.95 14.8 76.1 14.65 76.15 14.6 76.05
L 14.3 75.2
Q 14.25 75.1 14.3 74.95
L 14.55 74.55
Q 14.6 74.45 14.55 74.4 14.5 74.35 14.4 74.4 13.3 74.65 12.4 74.55 12.25 74.55 12.25 74.6 12.25 74.7 12.4 74.75 13.2 75.1 13.6 75.8 13.8 76.2 14.05 77.05
L 14.75 78.9
Q 14.85 79.15 14.85 79.35 14.85 79.45 14.8 79.55 14.75 79.65 14.85 79.7 14.85 79.75 14.95 79.7 15 79.6 15.5 79.35 15.95 79.15 16.1 79.05 16.35 78.95 16.05 78.85 15.6 78.8 15.2 77.6 15.15 77.5 15.3 77.4
L 16.95 76.95
Q 17.65 76.75 18.15 76.75 18.55 76.75 18.7 76.85 18.8 77 18.85 76.95
M 15.75 65.2
Q 15.7 65.05 15.65 65.1 15.55 65.15 15.55 65.3 15.55 65.5 15.3 65.9 14.95 66.5 14.15 67.1 13.65 67.4 13.1 67.7 12.6 67.95 12.45 67.95 12.35 68 12.15 67.9 11.4 67.25 11.3 67.1 11.25 67 11.2 67.1 11.15 67.15 11.2 67.3 11.55 67.95 11.8 69.1 11.9 69.55 12.3 71.45 12.3 71.65 12.45 71.5 12.85 70.95 14.75 71.25 16.4 71.5 16.9 72 16.95 72.1 17.05 72.05 17.1 72.05 17.1 71.95 17.1 71.7 16.9 70.75
L 16.6 69.45
Q 16.55 69.35 16.5 69.35 16.45 69.35 16.4 69.45 16.4 69.6 16.15 69.75 15.75 69.95 15.15 69.9 15.05 69.9 15 69.75
L 14.8 68.5
Q 14.75 68.35 14.85 68.3 15.6 68.05 15.9 68 16.05 68 16.1 68.05 16.35 68.2 16.3 68 16.2 67.3 16.1 66.7 15.9 65.55 15.75 65.2
M 14.1 68.65
Q 14.3 68.55 14.35 68.7
L 14.55 69.7 14.55 69.85
Q 14.55 69.9 14.45 69.9
L 13.15 70
Q 13 70 12.95 69.85
L 12.75 69.35
Q 12.7 69.2 12.8 69.1
L 14.1 68.65
M 12 61.2
Q 11.85 61.2 11.85 61.05
L 11.75 60.2
Q 11.75 60.05 11.85 59.95
L 12.15 59.65
Q 12.35 59.45 12.05 59.4 11 59.35 10.1 59 10 58.95 10 59 9.95 59.1 10.05 59.15 10.75 59.75 10.95 60.55 11 61 11 61.9
L 11.1 63.85
Q 11.15 64.2 10.95 64.5 10.95 64.55 10.95 64.6 11 64.7 11.1 64.65 11.15 64.6 11.7 64.5 12 64.45 12.4 64.4 12.5 64.35 12.5 64.3 12.5 64.25 12.35 64.2 12 64 11.9 62.7 11.9 62.55 12.05 62.55
L 13.8 62.6
Q 15.2 62.65 15.45 63 15.6 63.15 15.65 63.15 15.7 63.15 15.7 62.95 15.7 62.05 15.65 61.6 15.6 60.55 15.55 60.3 15.5 60.1 15.45 60.1 15.35 60.1 15.3 60.3 15.3 60.5 14.9 60.65 14.45 60.85 13.7 61
L 12 61.2
M 16.25 55.2
Q 16.35 54.5 16.15 53.8 16.05 53.4 16.4 52.95 16.5 52.8 16.45 52.75 16.4 52.7 16.25 52.8 16.1 52.9 15.55 52.9 14.8 52.95 13.85 52.85 12.95 52.75 12 52.25 11.35 51.95 11.1 51.75 10.95 51.65 10.95 51.7 10.9 51.75 11 51.9 11.55 52.65 11.5 53.15 11.4 53.45 11.15 54.5 11 55.6 11.65 56.45 12.3 57.3 13.3 57.4 14.45 57.55 15.25 56.95 16.1 56.35 16.25 55.2
M 15.25 53.65
Q 15.6 53.95 15.55 54.45 15.5 55.15 15 55.4 14.65 55.6 13.95 55.6 13.8 55.6 13.8 55.45 13.9 53.85 14.05 53.65 14.1 53.55 14.35 53.45 14.55 53.35 14.75 53.4 15.05 53.45 15.25 53.65
M 11.75 54.2
Q 11.85 53.6 12.25 53.3 12.6 53.05 12.9 53.1 13.4 53.15 13.35 54.2 13.35 54.5 13.2 55.4 13.2 55.5 13 55.5 12.65 55.45 12.25 55.05 11.7 54.65 11.75 54.2
M 16.6 49
Q 16.45 48.75 16.15 48.65 15.85 48.6 15.6 48.75 15.3 48.9 15.2 49.3 15.1 49.65 15.3 49.9 15.45 50.1 15.8 50.2 16.1 50.3 16.35 50.15 16.6 49.95 16.7 49.6 16.8 49.3 16.6 49
M 12.6 48
Q 12.35 48.15 12.25 48.5 12.15 48.85 12.35 49.1 12.5 49.35 12.8 49.45 13.1 49.5 13.35 49.35 13.6 49.2 13.7 48.9 13.8 48.55 13.65 48.3 13.5 48.05 13.2 47.95 12.85 47.85 12.6 48
M 16.75 41.85
Q 16.65 42 16.6 41.8 16.6 41.05 15.75 40.75 15.1 40.55 14.6 41.25 14.4 41.55 13.85 43.3 13.4 44.7 13.25 45.3 13.25 45.4 13.3 45.4 13.35 45.45 13.4 45.35 13.6 45.2 13.8 45.15 14.35 45.1 15.6 45.5 16.85 45.9 17.25 46.4 17.35 46.55 17.4 46.9 17.4 47 17.45 47 17.55 47 17.55 46.9
L 18.25 44.95
Q 18.5 44.3 18.6 43.85 18.85 43.05 18.85 42.7 18.85 42.25 18.65 41.85 18.4 41.35 17.95 41.25 17.45 41.1 17.1 41.45 17.05 41.45 16.75 41.85
M 16.65 42.95
Q 17 42.6 17.55 42.8 18 43 18.1 43.3 18.15 43.85 17.9 44.5 17.85 44.65 17.75 44.65 17.5 44.6 16.9 44.4 16.4 44.25 16.35 44.25 16.2 44.25 16.25 44.1 16.55 43.05 16.65 42.95
M 15.55 42.25
Q 15.9 42.4 16.05 42.65 16.25 43 15.85 43.9 15.8 44 15.7 44 14.95 43.75 14.4 43.5 14.3 43.45 14.35 43.3 14.55 42.55 14.75 42.4 15.1 42.1 15.55 42.25
M 19.5 31.9
Q 19.4 32.05 19.45 32.05 19.5 32.15 19.65 32.05 20.1 31.85 21.7 32.95 23 33.95 23 34.65 22.95 34.75 23 34.75 23.05 34.8 23.1 34.75 23.5 34.25 23.85 33.75 24.5 32.9 24.6 32.75 24.65 32.65 24.6 32.6 24.5 32.6 24.4 32.65 24.25 32.75 23.85 32.6 23.45 32.4 22.9 32.05 22.85 32 22.9 31.95
L 22.95 31.9
Q 23 31.9 23.55 31.9 24.15 31.9 24.6 31.85 25.35 31.7 25.65 31.55 26.05 31.3 26.25 30.65 26.35 30.2 25.9 29.8 25.6 29.5 25.35 29.45 25.3 29.4 25.25 29.45 25.2 29.5 25.25 29.55 25.35 29.8 25.05 30.15 24.9 30.4 24.2 30.75 23.65 31.1 23.45 31.15 23.35 31.2 23.3 31.15
L 23.35 31.05
Q 23.8 30.25 23.85 29.9 24.05 29.35 23.55 28.9 23.15 28.5 22.5 28.6 22 28.65 21.65 29 21.4 29.25 20.5 30.5
L 19.5 31.9
M 21.5 29.95
Q 22.15 29.7 22.7 30.15 23.1 30.5 23.1 30.85 23.1 30.95 22.95 31.25 22.8 31.55 22.6 31.75 22.5 31.85 22.4 31.75 21.15 30.85 21.05 30.75 20.9 30.7 21 30.55 21.3 30 21.5 29.95
M 17.85 33.35
Q 17.8 33.4 17.8 33.55 18.1 34.5 17.8 34.9 17.65 35.2 17 36.05 16.5 37 16.8 38.05 17.05 39.05 18 39.55 19 40.1 19.95 39.85 20.95 39.6 21.5 38.55 21.85 37.9 21.9 37.2 21.95 36.8 22.45 36.5 22.65 36.4 22.6 36.35 22.6 36.3 22.4 36.3 22.2 36.35 21.65 36.15 20.95 35.9 20.15 35.45 19.35 35.05 18.6 34.3 18.15 33.8 17.95 33.45 17.85 33.3 17.85 33.35
M 18.45 35.2
Q 18.9 35.1 19.2 35.25 19.7 35.5 19.25 36.6 19.05 37 18.6 37.75 18.55 37.85 18.4 37.75 18.05 37.6 17.75 37 17.4 36.4 17.65 35.95 17.9 35.35 18.45 35.2
M 19.45 37.1
Q 19.85 36.3 20 36.25 20.15 36.1 20.4 36.1 20.65 36.1 20.8 36.2 21.1 36.4 21.25 36.7 21.45 37.1 21.25 37.6 20.9 38.3 20.3 38.4 19.85 38.45 19.1 38.15 18.95 38.1 19 37.95 19.05 37.8 19.45 37.1
M 33.7 17.55
Q 33.6 17.55 33.6 17.7 33.45 18.7 33 18.95 32.35 19.2 31.8 19.6 30.9 20.25 30.75 21.3 30.55 22.35 31.15 23.2 31.85 24.1 32.8 24.3 33.8 24.55 34.8 23.8 35.35 23.4 35.75 22.8 35.95 22.45 36.5 22.4 36.7 22.4 36.7 22.3 36.7 22.25 36.55 22.2 36.4 22.15 35.95 21.7 35.4 21.2 34.85 20.45 34 19.3 33.75 17.7 33.75 17.55 33.7 17.55
M 34.4 21.05
Q 34.6 21.05 34.8 21.15 35.05 21.25 35.15 21.4 35.35 21.7 35.35 22.05 35.35 22.5 34.95 22.85 34.35 23.35 33.75 23.15 33.3 23 32.75 22.45 32.65 22.3 32.8 22.2 32.9 22.1 33.55 21.6 34.25 21.1 34.4 21.05
M 33.45 19.5
Q 33.9 19.6 34.15 19.85 34.45 20.3 33.55 21.1 33.25 21.35 32.5 21.85 32.4 21.9 32.3 21.75 32.05 21.45 32.05 20.8 32 20.1 32.4 19.8 32.9 19.4 33.45 19.5
M 26.65 23.8
Q 26.25 23.95 25.9 24.3 25.2 24.95 25.15 25.95 25.05 27.05 25.8 27.85 26.7 28.75 27.6 28.75 28.65 28.8 29.7 27.8 30.5 26.95 30.5 26.1 30.5 25.4 29.95 24.8 29.5 24.35 28.9 24.4 28.4 24.45 28.05 24.8 27.75 25.1 27.7 25.5 27.7 25.95 27.95 26.2 28.3 26.6 28.65 26.6 28.95 26.6 28.75 26.45 28.65 26.35 28.7 26.15 28.75 25.95 28.9 25.8 29.05 25.65 29.2 25.65 29.4 25.6 29.6 25.8 29.9 26.1 29.8 26.6 29.7 27 29.3 27.4 28.95 27.7 28.35 27.55 27.75 27.4 27.05 26.65 26.45 26.05 26.3 25.4 26.2 24.85 26.5 24.55 27.1 23.95 28.1 23.75 28.2 23.75 28.25 23.7 28.25 23.65 28.2 23.55
L 27.7 22.6 27.6 22.45
Q 27.55 22.45 27.55 22.6 27.55 23.2 27.2 23.5 27.05 23.65 26.65 23.8
M 41.7 14.2
Q 41.65 14.2 41.55 14.2 41.1 14.35 40.55 14.6 39.6 15.05 39.35 15.25 39.15 15.4 39.5 15.4 40 15.4 40.85 16.85
L 41.7 18.3
Q 41.75 18.4 41.7 18.45 41.6 18.45 41.5 18.4 40.6 17.9 39.95 17.35 38.4 16 38.3 15.95 38.15 15.85 37.95 15.95
L 37.1 16.4
Q 36.45 16.8 36.3 16.9 36.15 16.95 36.15 17.05 36.2 17.1 36.35 17.1 36.6 17.15 36.9 17.55 37.1 17.9 37.7 19.1 38.4 20.45 38.1 20.9 38 21 38.05 21.05 38.05 21.1 38.15 21.05 38.7 20.85 39.15 20.6 39.9 20.25 40.3 19.95 40.5 19.85 40.25 19.8 40 19.8 39.75 19.6 39.4 19.3 38.9 18.45 38.8 18.3 38.1 17.05 38 16.9 38.05 16.9 38.1 16.85 38.25 16.9
L 39.65 18.1
Q 40.45 18.75 41.3 19.25 41.45 19.35 41.65 19.25 41.7 19.2 42.6 18.8 43.2 18.5 43.3 18.4 43.5 18.25 43.2 18.2 43.05 18.15 42.75 17.65 42.4 17.1 42.05 16.35 41.6 15.4 41.55 14.8 41.55 14.45 41.7 14.35 41.75 14.25 41.7 14.2
M 48.7 11.15
Q 48.45 11.6 47.95 11.9 47.7 12.05 47.1 12.1 46.35 12.2 46.05 12.3 45.3 12.55 44.8 13.05 44.15 13.7 44.4 14.4 44.65 15.05 45.3 15.3 45.95 15.6 46.9 15.25 47.4 15.1 47.95 15.1 48.55 15.1 48.65 15.4 48.75 15.65 48.6 15.9 48.4 16.2 47.8 16.4 46.95 16.7 45.9 16.35 45.25 16.15 44.9 15.9 44.7 15.75 44.65 15.8 44.55 15.85 44.7 16.05 44.95 16.3 45.3 17 45.55 17.6 45.6 17.75 45.6 17.9 45.7 17.9 45.8 17.85 45.8 17.7 45.8 17.6 45.9 17.45 46.1 17.3 46.3 17.2 46.55 17.15 47.05 17.15 47.55 17.2 48.05 17.05 49.05 16.7 49.55 15.95 49.95 15.3 49.75 14.65 49.35 13.5 47.7 13.7 46.9 13.9 46.45 13.95 45.65 14.1 45.5 13.75 45.4 13.25 46.25 12.9 47.15 12.55 48.65 12.75 48.75 12.75 48.8 12.75 48.85 12.75 48.85 12.65 48.8 11.3 48.85 11.2 48.85 11.1 48.8 11.05 48.75 11.05 48.7 11.15
M 54.1 10.75
Q 54.1 10.65 53.95 10.7 53.05 10.8 52.65 10.85 51.85 11 51.35 11.15 51.2 11.2 51.2 11.25 51.2 11.3 51.35 11.35 52 11.4 52.3 13.2 52.55 14.45 52.35 15.05 52.3 15.3 52.1 15.45 51.95 15.55 52 15.6 52 15.65 52.15 15.65 52.4 15.65 53.55 15.4 54.55 15.25 54.8 15.15 54.95 15.1 54.95 15.05 54.9 14.95 54.75 14.95 54.5 14.9 54.35 14.65 54 14.2 53.8 12.9 53.6 11.85 53.75 11.3 53.85 10.95 54 10.85 54.1 10.8 54.1 10.75
M 77.35 13.35
Q 77 13.15 76.1 12.85 75.35 12.6 74.85 12.5 74.7 12.45 74.7 12.55 74.65 12.6 74.75 12.65 75.3 13 74.7 14.75 74.25 15.95 73.85 16.35 73.65 16.55 73.4 16.6 73.25 16.6 73.2 16.7 73.2 16.75 73.35 16.8 73.75 17 74.65 17.3 75.5 17.6 75.9 17.65 76.05 17.7 76.05 17.65 76.1 17.55 75.95 17.5 75.75 17.3 75.75 17 75.65 16.45 76.1 15.2 76.45 14.2 76.85 13.8 77.1 13.55 77.3 13.55 77.45 13.5 77.45 13.45 77.45 13.4 77.35 13.35
M 63.15 11.7
Q 63.1 11.7 63.05 11.8 62.85 12.1 61.95 12.2 61.05 12.3 61 12.3 61 12.25 61.15 11.4 61.3 10.45 61.65 10.3 61.95 10.2 61.65 10.15 61.35 10 60.55 10 60.1 10 59.75 10.1 59.5 10.15 59.4 10.15 59.3 10.15 59.25 10.2 59.25 10.3 59.4 10.35 59.85 10.5 59.95 11.5 60.05 12.2 60 12.25 59.85 12.35 59 12.25 58.45 12.15 58.25 12.05 58.1 12 58.05 11.85 58 11.75 57.95 11.75 57.9 11.8 57.85 11.9 57.75 12.2 57.75 12.8 57.75 13.5 57.8 13.75 57.85 13.9 57.9 13.9 57.95 13.9 58.05 13.75 58.2 13.5 59.05 13.25 59.85 13 60.05 13.1
L 59.95 14
Q 59.85 14.45 59.7 14.8 59.55 15.05 59.4 15.1 59.3 15.15 59.3 15.2 59.3 15.25 59.4 15.25 59.75 15.4 60.55 15.4 61.15 15.4 61.65 15.3 61.8 15.3 61.8 15.25 61.8 15.15 61.6 15.15 61.3 15.05 61.1 14 60.95 13.1 61 13.05 61.05 13.05 61.95 13.15 62.25 13.2 62.65 13.45 62.9 13.65 63 13.75 63.1 14 63.15 13.75 63.3 13.4 63.3 12.75 63.3 12.3 63.25 11.8 63.2 11.75 63.15 11.7
M 72.55 11.5
Q 72.05 11.75 71.5 11.75 71.25 11.75 70.7 11.5 70 11.15 69.65 11.05 68.9 10.9 68.25 11.05 67.35 11.25 67.2 12 67.05 12.65 67.45 13.2 67.9 13.85 68.85 14.05 69.35 14.2 69.8 14.45 70.35 14.8 70.3 15.1 70.1 15.7 69 15.5 68.1 15.25 67.4 14.5 66.95 13.9 66.8 13.5 66.75 13.3 66.65 13.3 66.55 13.3 66.6 13.55 66.65 13.9 66.55 14.65 66.45 15.25 66.4 15.45 66.35 15.6 66.45 15.65 66.55 15.65 66.6 15.55 66.65 15.45 66.85 15.4 67.1 15.35 67.3 15.4 67.55 15.45 67.95 15.75 68.35 16.05 68.85 16.15 69.9 16.4 70.7 16.05 71.45 15.7 71.6 15.05 71.85 13.85 70.35 13.15 69.55 12.9 69.15 12.7 68.4 12.4 68.5 12 68.6 11.5 69.55 11.7 70.5 11.85 71.65 12.85 71.8 12.95 71.9 12.85 72 12.7 72.65 11.6 72.7 11.5 72.65 11.5 72.65 11.45 72.55 11.5
M 89.7 94.5
Q 89.1 95.05 88.8 95.35 88.65 95.5 88.7 95.55 88.75 95.6 88.9 95.55 89.15 95.45 89.4 95.55 89.95 95.8 90.8 96.75 91.5 97.55 91.65 98.15 91.75 98.5 91.65 98.65 91.6 98.8 91.65 98.8 91.7 98.85 91.8 98.8 91.9 98.7 92.85 97.95 93.4 97.45 93.8 97 93.9 96.95 93.85 96.85 93.8 96.8 93.7 96.85 93.1 97.15 91.9 95.75 90.65 94.35 90.95 93.75 91 93.6 90.95 93.55 90.9 93.5 90.8 93.6 90.5 93.8 89.7 94.5
M 83.95 98.8
Q 83.95 98.85 84.15 98.8 84.3 98.75 84.65 98.95 85.05 99.25 85.55 99.85
L 86.6 101.2
Q 86.7 101.35 86.55 101.45
L 85.85 101.9
Q 85.75 101.95 85.6 101.95 85.3 101.9 85.15 101.85 84.9 101.8 85.05 102.05 85.5 103.05 85.65 103.95 85.65 104.1 85.75 104.05 85.8 104.05 85.8 103.9 85.95 103 86.55 102.45 86.9 102.15 87.7 101.75
L 89.35 100.6
Q 89.6 100.45 89.95 100.45 90.05 100.45 90.1 100.35 90.1 100.3 90 100.25 90 100.2 89.15 99.25 88.95 99.05 89 99.4 89 99.85 87.95 100.5 87.8 100.6 87.75 100.45
L 86.9 98.95
Q 86.55 98.3 86.45 97.85 86.35 97.45 86.4 97.3 86.5 97.15 86.45 97.1 86.4 97.05 86.25 97.15 85.5 97.6 85.1 97.85 84.15 98.5 84.05 98.6 83.9 98.75 83.95 98.8
M 103.7 74.1
Q 103.65 74 103.65 73.95 103.6 73.95 103.5 74.05 103.3 74.5 103.05 75.1
L 102.55 76.3
Q 102.55 76.45 102.6 76.45 102.65 76.5 102.75 76.4 103.15 76 104.85 76.75
L 106.25 77.35
Q 106.35 77.4 106.35 77.45 106.35 77.5 106.2 77.5
L 103.6 77.75
Q 103.5 77.8 103.45 77.85 103.45 77.95 103.5 78
L 105.15 80.15
Q 105.2 80.25 105.15 80.3
L 105.05 80.3 103.65 79.7
Q 102.9 79.4 102.4 79.05 101.9 78.7 101.9 78.5 101.9 78.35 101.85 78.3 101.8 78.25 101.7 78.4
L 101.2 79.6
Q 100.8 80.5 100.75 80.8 100.7 81 100.95 80.85 101.15 80.7 101.4 80.7 101.9 80.75 103.1 81.15 104.25 81.6 104.7 81.95 104.9 82.1 104.95 82.3 105 82.45 105.05 82.3 105.2 82.15 105.55 81.2
L 105.95 80.25
Q 106 80.05 105.9 79.95
L 104.75 78.55
Q 104.65 78.4 104.8 78.4
L 106.6 78.3
Q 106.7 78.3 106.8 78.2 106.9 78.1 107.3 77.1 107.4 76.9 107.7 76.05 107.7 75.8 107.5 75.95 107.35 76.1 106.8 76 106.35 75.85 105.3 75.35 104.2 74.85 103.85 74.5 103.7 74.35 103.7 74.1
M 109.95 66.55
Q 109.95 66.45 109.9 66.4 109.85 66.4 109.75 66.5 109.65 66.7 109.1 66.65 108.6 66.6 107.5 66.3 106.3 66 105.9 65.7 105.75 65.55 105.7 65.35 105.65 65.2 105.6 65.2 105.55 65.2 105.5 65.35
L 104.95 67.75
Q 104.95 67.85 105 67.85 105.1 67.9 105.15 67.75 105.3 67.55 105.85 67.55 106.4 67.5 107.3 67.7 108.5 68 108.75 68.1 108.85 68.1 108.85 68.2
L 108.75 68.25 106.2 68.95
Q 106.15 69 106.15 69.1 106.1 69.15 106.15 69.25
L 108.15 71.05
Q 108.25 71.15 108.2 71.15 108.2 71.2 108.1 71.2
L 106.6 70.85
Q 105.8 70.7 105.3 70.45 104.75 70.2 104.7 69.95 104.65 69.85 104.6 69.8 104.55 69.75 104.5 69.9 104.4 70.15 104.2 71.15 103.95 72.15 103.95 72.4 103.95 72.55 104 72.55 104.05 72.55 104.15 72.45 104.35 72.25 104.6 72.25 105.1 72.2 106.35 72.4 107.55 72.6 108.05 72.85 108.25 73 108.35 73.2 108.4 73.35 108.45 73.15
L 108.95 71
Q 109 70.8 108.9 70.7
L 107.5 69.5
Q 107.45 69.45 107.45 69.4
L 107.55 69.35 109.25 68.95
Q 109.4 68.95 109.45 68.85 109.5 68.7 109.75 67.7 109.95 66.9 109.95 66.55
M 105.85 59.7
Q 105.45 60.35 105.4 61.25 105.4 62.05 105.9 62.85 106.6 63.9 108 63.95 109.4 64 110.05 63.05 110.5 62.4 110.5 61.35 110.55 60.25 110 59.6 109.35 58.75 107.9 58.7 106.5 58.65 105.85 59.7
M 106.4 60.85
Q 107 60.5 107.95 60.55 108.9 60.55 109.5 60.9 110 61.15 110 61.35 110 61.55 109.5 61.8 108.85 62.1 107.95 62.1 107 62.05 106.4 61.75 105.95 61.5 105.95 61.3 105.95 61.05 106.4 60.85
M 109.2 52.3
Q 108.3 51.6 107.15 51.8 105.45 52.05 105.05 53.5 104.75 54.65 105.45 55.8 105.85 56.4 105.7 56.85 105.65 57 105.75 57.05 105.8 57.1 106 56.95 106.5 56.7 107.25 56.6 107.55 56.55 107.55 56.5 107.55 56.45 107.25 56.35 106.8 56.2 106.4 55.9 105.95 55.45 105.85 55 105.75 54.5 106.2 54.1 106.65 53.65 107.45 53.5 108.3 53.35 108.95 53.6 109.55 53.85 109.65 54.4 109.75 54.85 109.55 55.45 109.4 55.85 109.2 56.1 109.05 56.35 109.3 56.35 109.65 56.4 110.15 56.5 110.8 56.65 111.1 56.75 111.3 56.85 111.3 56.8 111.3 56.7 111.15 56.55 110.35 56 110.25 55.4 110.25 55.2 110.25 54.9 110.3 54.6 110.2 53.95 110.05 52.95 109.2 52.3
M 107.25 48.05
Q 107.35 48.35 107.6 48.55 107.85 48.7 108.2 48.6 108.5 48.55 108.65 48.25 108.8 48 108.7 47.65 108.6 47.35 108.35 47.2 108.05 47.05 107.8 47.1 107.5 47.2 107.35 47.45 107.2 47.7 107.25 48.05
M 104.3 48.9
Q 104.4 49.2 104.7 49.35 104.95 49.5 105.25 49.45 105.55 49.35 105.7 49.1 105.85 48.85 105.75 48.45 105.55 47.75 104.8 47.95 104.5 48 104.35 48.25 104.2 48.55 104.3 48.9
M 100.45 38.6
Q 100.5 38.9 100.85 39.7
L 101.4 40.9
Q 101.45 41 101.5 40.95 101.55 40.95 101.55 40.8 101.55 40.25 103.25 39.55 104.3 39.1 104.7 38.95 104.8 38.95 104.8 39 104.85 39.05 104.75 39.1
L 103.1 41.15
Q 103.05 41.2 103.1 41.3 103.15 41.4 103.2 41.4 103.5 41.45 105.9 41.7 106.05 41.75 106.05 41.8
L 105.95 41.85
Q 105.9 41.9 104.55 42.45 103.8 42.8 103.2 42.9 102.6 43 102.45 42.85 102.35 42.8 102.3 42.8 102.2 42.8 102.25 42.9 102.35 43.2 102.75 44.15 103.15 45.1 103.3 45.3 103.35 45.4 103.4 45.35 103.45 45.35 103.45 45.2 103.5 44.95 103.7 44.75 104.1 44.45 105.2 43.9 106.9 43.05 107.3 43.35 107.45 43.45 107.4 43.25 107.3 42.85 106.95 42.15
L 106.5 41.2
Q 106.4 41.05 106.3 41.05
L 104.5 40.85
Q 104.4 40.85 104.4 40.8 104.35 40.8 104.4 40.7
L 105.6 39.4
Q 105.7 39.3 105.65 39.2 105.65 38.95 105.25 38.05 104.95 37.35 104.75 37 104.6 36.8 104.6 37.1 104.55 37.3 104.1 37.6 103.7 37.85 102.6 38.25 101.45 38.7 100.95 38.7 100.8 38.65 100.55 38.5 100.5 38.45 100.45 38.45 100.4 38.5 100.45 38.6
M 100.3 30.1
Q 100.25 30.15 100.3 30.25 100.3 30.4 100.15 30.85 100.05 31.25 99.85 31.65 99.6 32.2 97.95 35.3 97.8 35.5 98.05 35.45 99 35.45 100.8 35.4 102.25 35.35 103.1 35.5 103.65 35.6 103.85 35.7 104 35.8 104 35.75 104.05 35.7 104 35.6 103.65 34.9 103.35 34.45 102.9 33.85 102.65 33.55 102.5 33.4 102.55 33.6 102.55 34 101.95 34.25 101.35 34.5 100.4 34.7 99.8 34.8 99.45 34.85 99.2 34.85 99.3 34.65 99.8 33.9 100.85 32.6 101.1 32.3 101.4 32.3 101.55 32.25 101.7 32.35 101.8 32.4 101.85 32.35
L 101.8 32.25
Q 101.55 31.75 101.1 31.15 100.95 30.9 100.4 30.2 100.35 30.1 100.3 30.1
M 96.3 25.7
Q 96.3 25.75 96.3 25.85 96.35 26.05 96.05 26.45 95.8 26.75 94.85 27.7 93.55 28.9 93.2 28.8 93.05 28.75 93.05 28.8 93 28.85 93.15 28.95 93.3 29.05 93.75 29.65
L 95.35 31.45
Q 95.85 32.05 96.4 32.15 96.95 32.2 97.45 31.8 97.85 31.45 97.75 30.95 97.7 30.55 97.45 30.25 97.25 30.05 96.8 29.95 96.75 29.9 96.7 29.95
L 96.75 30.05
Q 96.8 30.15 96.75 30.3 96.65 30.5 96.4 30.65 96.15 30.85 95.85 30.8 95.55 30.75 95.35 30.55
L 94.7 29.85
Q 94.6 29.75 94.75 29.65 94.8 29.6 95.8 28.7 96.45 28.15 97.05 27.85 97.6 27.55 97.9 27.6 98.1 27.65 97.95 27.45
L 97.25 26.6
Q 96.6 25.9 96.45 25.75 96.35 25.65 96.3 25.7
M 90.9 20.95
Q 90.9 21 90.9 21.1 91 21.3 90.75 21.7 90.55 22.05 89.7 23.15 89 24.05 88.65 24.3 88.4 24.45 88.25 24.45 88.1 24.4 88.1 24.5 88.1 24.55 88.25 24.65 88.3 24.7 88.95 25.25 90.15 26.25 90.75 26.8 91.35 27.3 91.9 27.35 92.45 27.35 92.85 26.85 93.2 26.45 93.05 25.95 92.95 25.6 92.65 25.35 92.4 25.15 92 25.1 91.8 25.05 91.95 25.2 92 25.3 91.95 25.45 91.9 25.7 91.7 25.85 91.5 26.05 91.15 26.1 90.85 26.1 90.6 25.9
L 89.9 25.3
Q 89.8 25.2 89.9 25.1 90.2 24.7 90.8 24 91.35 23.35 91.95 22.95 92.45 22.6 92.75 22.6
L 92.85 22.6
Q 92.85 22.55 92.8 22.45 92.75 22.4 91.95 21.7
L 91.05 21
Q 90.95 20.95 90.9 20.95
M 82 15.6
Q 82.8 16 83.25 16.9 83.3 17 83.35 17 83.4 17 83.5 16.9
L 84.25 16.15
Q 84.45 15.9 84.15 16 83.65 16.2 83.15 15.95 83 15.85 82.75 15.55 82.5 15.2 82.05 14.95 81.2 14.5 80.25 14.75 79.15 14.95 78.65 15.95 78.05 17.05 78.3 17.95 78.6 18.95 79.85 19.6 80.9 20.2 81.75 19.9 82.4 19.65 82.8 18.95 83.1 18.4 82.85 17.85 82.7 17.4 82.2 17.15 81.85 16.95 81.45 17.05 81 17.15 80.85 17.5 80.6 17.95 80.7 18.25 80.75 18.55 80.9 18.3 80.95 18.25 81.15 18.2 81.35 18.2 81.5 18.25 81.95 18.5 81.75 18.9 81.55 19.3 81.05 19.35 80.6 19.4 80.15 19.15 79.7 18.9 79.7 18.3 79.7 17.7 80.15 16.8 80.55 16 81.15 15.7 81.65 15.4 82 15.6
M 86.45 17.65
Q 86.35 17.6 86.3 17.65 86.25 17.7 86.35 17.8 86.75 18.3 85.7 19.8 84.6 21.4 84 21.25 83.85 21.25 83.8 21.3 83.75 21.35 83.85 21.4 84.1 21.6 85 22.25 85.8 22.8 86.1 22.95 86.25 23 86.3 22.95 86.3 22.9 86.25 22.75 86.05 22.55 86.1 22.25 86.2 21.7 86.95 20.65 87.95 19.2 88.6 19.3 88.7 19.35 88.7 19.3 88.75 19.25 88.65 19.15 88.3 18.85 87.6 18.35 86.85 17.9 86.45 17.65 Z"/>
</g>
</defs>

<g transform="matrix( 1, 0, 0, 1, 0,0) ">
<use xlink:href="#Layer0_0_FILL"/>
</g>
</svg>
